<svg width="248" height="128" viewBox="0 0 248 128" fill="none" xmlns="http://www.w3.org/2000/svg">
<g id="_&#229;&#156;&#150;&#229;&#177;&#164;_1" clip-path="url(#clip0_1_498)">
<path id="Vector" d="M93.8522 84.3286V45.522" stroke="black"/>
<path id="Vector_2" d="M105.384 41.6946H111.402V74.2624H117.435V80.0105H105.384V41.7086V41.6946Z" fill="black"/>
<path id="Vector_3" d="M123.228 80.5433C121.699 80.5433 120.521 80.0245 119.721 78.9731C118.922 77.9216 118.515 76.4495 118.515 74.5148V70.1406C118.515 67.5189 119.174 65.5422 120.479 64.2103C121.797 62.8784 123.691 62.2055 126.174 62.2055H127.17V57.2705C127.17 56.3312 127.044 55.6863 126.806 55.3358C126.567 54.9853 126.259 54.8171 125.852 54.8171C125.445 54.8171 125.136 54.9853 124.884 55.3358C124.631 55.6863 124.519 56.3312 124.519 57.2705V60.0044H118.767V57.8173C118.767 55.1956 119.399 53.2188 120.647 51.887C121.91 50.5551 123.635 49.8821 125.838 49.8821C128.04 49.8821 129.752 50.5551 131.014 51.887C132.277 53.2188 132.894 55.1956 132.894 57.8173V80.2488H129.331L127.69 77.7954C127.353 78.3141 126.988 78.7768 126.595 79.1693C126.231 79.5338 125.754 79.8563 125.192 80.1227C124.631 80.4031 123.972 80.5433 123.2 80.5433H123.228ZM125.697 75.6223C125.992 75.6223 126.231 75.5102 126.427 75.2999C126.637 75.0756 126.792 74.8232 126.904 74.5288C127.044 74.2064 127.128 73.8418 127.17 73.4353V66.874H126.174C125.627 66.874 125.178 67.0984 124.814 67.533C124.449 67.9676 124.267 68.6686 124.267 69.6219V73.1829C124.267 74.1222 124.407 74.7671 124.673 75.1176C124.954 75.4681 125.291 75.6364 125.683 75.6364L125.697 75.6223Z" fill="black"/>
<path id="Vector_4" d="M136.205 50.1766H139.768L141.396 52.63C141.76 52.1253 142.167 51.6626 142.616 51.2701C143.023 50.9476 143.5 50.6252 144.061 50.3308C144.636 50.0364 145.296 49.8962 146.067 49.8962C147.596 49.8962 148.775 50.4149 149.574 51.4664C150.374 52.5038 150.781 54.0039 150.781 55.9246V79.9965H145.029V57.2846C145.029 56.3452 144.889 55.7003 144.608 55.3498C144.328 54.9993 143.991 54.8311 143.598 54.8311C143.233 54.8311 142.953 54.9433 142.742 55.1676C142.546 55.3779 142.392 55.6302 142.293 55.9246C142.153 56.2611 142.041 56.6256 141.957 57.0182V79.9965H136.205V50.1766Z" fill="black"/>
<path id="Vector_5" d="M159.324 80.5433C157.669 80.5433 156.378 79.9685 155.452 78.8188C154.527 77.6692 154.064 76.0569 154.064 73.968V55.9106C154.064 53.9759 154.47 52.4898 155.27 51.4524C156.084 50.4149 157.248 49.8821 158.791 49.8821C159.479 49.8821 160.068 49.9943 160.559 50.2186C161.064 50.4289 161.485 50.6813 161.85 50.9757C162.256 51.3122 162.593 51.6767 162.888 52.0692V41.6806H168.639V80.2488H165.076L163.701 78.0758C163.421 78.5525 163.07 78.9731 162.663 79.3376C162.312 79.632 161.836 79.9124 161.274 80.1507C160.713 80.4031 160.068 80.5433 159.338 80.5433H159.324ZM161.232 75.6223C161.555 75.6223 161.836 75.5102 162.046 75.2999C162.27 75.0756 162.439 74.8232 162.537 74.5288C162.691 74.2063 162.803 73.8418 162.874 73.4353V57.0322C162.803 56.6256 162.691 56.2611 162.537 55.9387C162.425 55.6442 162.256 55.3919 162.046 55.1816C161.836 54.9573 161.555 54.8451 161.232 54.8451C160.825 54.8451 160.489 55.0134 160.222 55.3639C159.942 55.7143 159.801 56.3593 159.801 57.2986V73.1689C159.801 74.1082 159.942 74.7531 160.222 75.1036C160.503 75.4541 160.839 75.6223 161.232 75.6223Z" fill="black"/>
<path id="Vector_6" d="M179.301 80.5433C176.958 80.5433 175.107 79.8002 173.718 78.3001C172.329 76.8 171.642 74.5428 171.642 71.5146V67.6732H177.66V72.0613C177.66 73.2951 177.828 74.1082 178.179 74.4867C178.53 74.8653 178.894 75.0616 179.301 75.0616C179.708 75.0616 180.073 74.8653 180.424 74.4867C180.774 74.1082 180.943 73.2951 180.943 72.0613C180.943 71.2622 180.901 70.5752 180.83 70.0145C180.76 69.4396 180.578 68.8508 180.283 68.2059C179.989 67.561 179.554 66.8039 178.965 65.9347C178.389 65.0515 177.59 63.9019 176.566 62.4718C175.542 61.0559 174.714 59.8502 174.069 58.8407C173.437 57.8313 172.932 56.892 172.568 56.0228C172.203 55.1536 171.95 54.2703 171.824 53.3731C171.698 52.4758 171.642 51.4103 171.642 50.1625C171.642 47.1343 172.329 44.8771 173.718 43.377C175.107 41.8769 176.973 41.1338 179.301 41.1338C181.63 41.1338 183.51 41.8769 184.885 43.377C186.274 44.8771 186.975 47.1343 186.975 50.1625V53.4291H180.943V49.6018C180.943 48.354 180.774 47.5409 180.424 47.1623C180.073 46.7838 179.708 46.5875 179.301 46.5875C178.894 46.5875 178.53 46.7838 178.179 47.1623C177.828 47.5409 177.66 48.368 177.66 49.6018C177.66 50.4429 177.688 51.1299 177.772 51.6907C177.856 52.2375 178.039 52.8263 178.319 53.4712C178.614 54.1021 179.049 54.8591 179.624 55.7424C180.213 56.6116 181.013 57.7612 182.051 59.1912C183.075 60.6072 183.903 61.8269 184.534 62.8223C185.179 63.8318 185.67 64.7711 186.049 65.6403C186.414 66.5095 186.652 67.4068 186.779 68.3041C186.919 69.2013 186.975 70.2668 186.975 71.5005C186.975 74.5288 186.274 76.786 184.885 78.2861C183.496 79.7862 181.644 80.5292 179.301 80.5292V80.5433Z" fill="black"/>
<path id="Vector_7" d="M196.613 80.5433C194.382 80.5433 192.629 79.8843 191.338 78.5525C190.061 77.2206 189.43 75.2298 189.43 72.6081V57.8313C189.43 55.2096 190.061 53.2329 191.338 51.901C192.615 50.5691 194.382 49.8962 196.613 49.8962C198.843 49.8962 200.541 50.5691 201.845 51.901C203.15 53.2329 203.795 55.2096 203.795 57.8313V67.1264H195.182V73.1549C195.182 74.0942 195.308 74.7391 195.575 75.0896C195.827 75.4401 196.178 75.6083 196.613 75.6083C197.02 75.6083 197.342 75.4401 197.609 75.0896C197.889 74.7391 198.03 74.0942 198.03 73.1549V70.421H203.795V72.6081C203.795 75.2438 203.15 77.2206 201.845 78.5525C200.555 79.8843 198.815 80.5433 196.613 80.5433ZM198.03 62.4859V57.2846C198.03 56.3452 197.889 55.7003 197.609 55.3498C197.342 54.9993 197.006 54.8311 196.613 54.8311C196.178 54.8311 195.827 54.9993 195.575 55.3498C195.308 55.7003 195.182 56.3452 195.182 57.2846V62.4859H198.03Z" fill="black"/>
<path id="Vector_8" d="M213.7 80.5433C211.469 80.5433 209.716 79.8843 208.425 78.5525C207.148 77.2206 206.517 75.2298 206.517 72.6081V57.8313C206.517 55.2096 207.148 53.2329 208.425 51.901C209.702 50.5691 211.469 49.8962 213.7 49.8962C215.93 49.8962 217.628 50.5691 218.932 51.901C220.237 53.2329 220.882 55.2096 220.882 57.8313V67.1264H212.269V73.1549C212.269 74.0942 212.395 74.7391 212.662 75.0896C212.914 75.4401 213.265 75.6083 213.7 75.6083C214.107 75.6083 214.429 75.4401 214.696 75.0896C214.976 74.7391 215.117 74.0942 215.117 73.1549V70.421H220.882V72.6081C220.882 75.2438 220.237 77.2206 218.932 78.5525C217.642 79.8843 215.902 80.5433 213.7 80.5433ZM215.117 62.4859V57.2846C215.117 56.3452 214.976 55.7003 214.696 55.3498C214.429 54.9993 214.093 54.8311 213.7 54.8311C213.265 54.8311 212.914 54.9993 212.662 55.3498C212.395 55.7003 212.269 56.3452 212.269 57.2846V62.4859H215.117Z" fill="black"/>
<path id="Vector_9" d="M228.879 80.5433C227.223 80.5433 225.933 79.9685 225.007 78.8188C224.081 77.6692 223.618 76.0569 223.618 73.968V55.9106C223.618 53.9759 224.025 52.4898 224.825 51.4524C225.638 50.4149 226.803 49.8821 228.346 49.8821C229.033 49.8821 229.622 49.9943 230.113 50.2186C230.618 50.4289 231.039 50.6813 231.404 50.9757C231.811 51.3122 232.148 51.6767 232.442 52.0692V41.6806H238.194V80.2488H234.631L233.256 78.0758C232.975 78.5525 232.624 78.9731 232.218 79.3376C231.867 79.632 231.39 79.9124 230.829 80.1507C230.268 80.4031 229.622 80.5433 228.893 80.5433H228.879ZM230.787 75.6223C231.109 75.6223 231.39 75.5102 231.6 75.2999C231.825 75.0756 231.993 74.8232 232.091 74.5288C232.246 74.2063 232.358 73.8418 232.428 73.4353V57.0322C232.358 56.6256 232.246 56.2611 232.091 55.9387C231.979 55.6442 231.811 55.3919 231.6 55.1816C231.39 54.9573 231.109 54.8451 230.787 54.8451C230.38 54.8451 230.043 55.0134 229.777 55.3639C229.496 55.7143 229.356 56.3593 229.356 57.2986V73.1689C229.356 74.1082 229.496 74.7531 229.777 75.1036C230.057 75.4541 230.394 75.6223 230.787 75.6223Z" fill="black"/>
<path id="Vector_10" d="M105.187 91.1001V90.4973H105.931V86.3194H105.187V85.7306H107.446V86.3194H106.703V90.4973H107.446V91.1001H105.187Z" fill="black"/>
<path id="Vector_11" d="M108.54 91.1001V87.1045H109.031L109.214 87.7214C109.326 87.5251 109.48 87.3709 109.677 87.2447C109.887 87.1185 110.154 87.0624 110.49 87.0624C110.967 87.0624 111.304 87.2026 111.5 87.483C111.711 87.7634 111.809 88.1279 111.809 88.5766V91.1001H111.122V88.7728C111.122 88.5625 111.108 88.3803 111.065 88.212C111.023 88.0298 110.939 87.8896 110.813 87.7914C110.687 87.6793 110.504 87.6372 110.252 87.6372C109.915 87.6372 109.663 87.7494 109.48 87.9737C109.298 88.198 109.2 88.5205 109.2 88.9551V91.1141H108.512L108.54 91.1001Z" fill="black"/>
<path id="Vector_12" d="M112.931 91.1001V87.1045H113.422L113.605 87.7214C113.717 87.5251 113.871 87.3709 114.068 87.2447C114.278 87.1185 114.545 87.0624 114.881 87.0624C115.358 87.0624 115.695 87.2026 115.891 87.483C116.102 87.7634 116.2 88.1279 116.2 88.5766V91.1001H115.513V88.7728C115.513 88.5625 115.499 88.3803 115.457 88.212C115.414 88.0298 115.33 87.8896 115.204 87.7914C115.078 87.6793 114.895 87.6372 114.643 87.6372C114.306 87.6372 114.054 87.7494 113.871 87.9737C113.689 88.198 113.591 88.5205 113.591 88.9551V91.1141H112.903L112.931 91.1001Z" fill="black"/>
<path id="Vector_13" d="M118.992 91.1842C118.753 91.1842 118.529 91.1422 118.304 91.058C118.08 90.9739 117.883 90.8478 117.687 90.6795C117.505 90.5113 117.35 90.301 117.238 90.0346C117.126 89.7682 117.084 89.4598 117.084 89.0953C117.084 88.7308 117.14 88.4364 117.238 88.17C117.35 87.9036 117.505 87.6793 117.687 87.5111C117.869 87.3428 118.08 87.2167 118.304 87.1325C118.529 87.0484 118.753 87.0064 118.992 87.0064C119.23 87.0064 119.455 87.0484 119.679 87.1325C119.904 87.2167 120.114 87.3428 120.31 87.5111C120.493 87.6793 120.647 87.9036 120.745 88.17C120.858 88.4364 120.9 88.7448 120.9 89.0953C120.9 89.4458 120.844 89.7682 120.745 90.0346C120.633 90.301 120.493 90.5113 120.31 90.6795C120.128 90.8478 119.918 90.9739 119.679 91.058C119.455 91.1422 119.23 91.1842 118.992 91.1842ZM118.992 90.5954C119.188 90.5954 119.371 90.5393 119.553 90.4412C119.735 90.329 119.89 90.1748 120.002 89.9645C120.114 89.7402 120.17 89.4598 120.17 89.1233C120.17 88.7869 120.114 88.4924 120.002 88.2821C119.89 88.0719 119.735 87.9036 119.553 87.8055C119.371 87.6933 119.188 87.6513 118.992 87.6513C118.795 87.6513 118.613 87.7073 118.431 87.8055C118.248 87.9176 118.094 88.0719 117.982 88.2821C117.869 88.4924 117.813 88.7728 117.813 89.1233C117.813 89.4738 117.869 89.7402 117.982 89.9645C118.108 90.1748 118.262 90.343 118.431 90.4412C118.613 90.5533 118.809 90.5954 118.992 90.5954Z" fill="black"/>
<path id="Vector_14" d="M122.639 91.1001L121.208 87.1045H121.938L122.976 90.2169L124.014 87.1045H124.729L123.313 91.1001H122.611H122.639Z" fill="black"/>
<path id="Vector_15" d="M126.441 91.1842C126.188 91.1842 125.964 91.1422 125.74 91.044C125.529 90.9599 125.375 90.8337 125.249 90.6515C125.122 90.4692 125.066 90.2589 125.066 90.0206C125.066 89.7122 125.178 89.4598 125.403 89.2916C125.627 89.1093 125.936 88.9691 126.343 88.871C126.75 88.7588 127.227 88.6887 127.774 88.6326C127.774 88.2962 127.704 88.0438 127.563 87.8616C127.423 87.6793 127.185 87.5812 126.862 87.5812C126.623 87.5812 126.427 87.6372 126.273 87.7494C126.118 87.8616 126.02 88.0018 125.978 88.184L125.319 88.0018C125.431 87.7073 125.613 87.469 125.894 87.2867C126.174 87.1185 126.483 87.0344 126.862 87.0344C127.409 87.0344 127.816 87.1606 128.068 87.4269C128.321 87.6933 128.461 88.0999 128.461 88.6607V89.586C128.461 89.9225 128.461 90.2169 128.503 90.4552C128.545 90.6935 128.559 90.9038 128.601 91.1001H127.984L127.83 90.5533C127.704 90.7496 127.535 90.9038 127.311 91.016C127.1 91.1281 126.82 91.1842 126.469 91.1842H126.441ZM126.581 90.6515C126.792 90.6515 126.988 90.6234 127.171 90.5393C127.353 90.4552 127.507 90.329 127.619 90.1468C127.746 89.9645 127.802 89.7262 127.802 89.4177V89.1654C127.395 89.2074 127.03 89.2635 126.736 89.3196C126.441 89.3897 126.203 89.4598 126.034 89.572C125.88 89.6841 125.796 89.8243 125.796 90.0066C125.796 90.1888 125.866 90.343 125.992 90.4552C126.132 90.5674 126.329 90.6234 126.567 90.6234L126.581 90.6515Z" fill="black"/>
<path id="Vector_16" d="M130.762 91.1002C130.51 91.1002 130.313 91.0861 130.173 91.0301C130.033 90.974 129.948 90.8758 129.892 90.7356C129.85 90.5814 129.822 90.3711 129.822 90.0907V87.6513H129.135V87.1045H129.822V86.1091H130.496V87.1045H131.267V87.6513H130.496V89.9926C130.496 90.2029 130.51 90.3431 130.552 90.4132C130.594 90.4833 130.72 90.5113 130.916 90.5113H131.281V91.1142H130.776L130.762 91.1002Z" fill="black"/>
<path id="Vector_17" d="M132.852 86.3474C132.712 86.3474 132.6 86.3054 132.501 86.2072C132.403 86.1091 132.361 85.9969 132.361 85.8427C132.361 85.6885 132.403 85.5904 132.501 85.4922C132.6 85.3941 132.712 85.352 132.852 85.352C132.992 85.352 133.119 85.4081 133.217 85.4922C133.315 85.5763 133.357 85.7025 133.357 85.8427C133.357 85.9829 133.301 86.1091 133.217 86.2072C133.119 86.3054 132.992 86.3474 132.852 86.3474ZM132.515 91.1001V87.6513H131.954V87.1045H133.189V91.1001H132.515Z" fill="black"/>
<path id="Vector_18" d="M135.251 91.1001L133.82 87.1045H134.55L135.588 90.2169L136.626 87.1045H137.341L135.924 91.1001H135.223H135.251Z" fill="black"/>
<path id="Vector_19" d="M139.628 91.1842C139.207 91.1842 138.856 91.1001 138.562 90.9178C138.281 90.7356 138.057 90.4832 137.903 90.1748C137.748 89.8523 137.678 89.5019 137.678 89.1093C137.678 88.6887 137.762 88.3242 137.931 88.0298C138.099 87.7214 138.337 87.483 138.632 87.3148C138.927 87.1465 139.249 87.0624 139.628 87.0624C139.937 87.0624 140.217 87.1325 140.456 87.2447C140.708 87.3709 140.905 87.5391 141.059 87.7494C141.213 87.9597 141.34 88.198 141.41 88.4644C141.48 88.7308 141.508 89.0112 141.494 89.2916H138.422C138.422 89.628 138.506 89.8804 138.632 90.0767C138.772 90.2589 138.941 90.3991 139.123 90.4832C139.305 90.5674 139.488 90.6094 139.642 90.6094C139.867 90.6094 140.049 90.5814 140.203 90.4973C140.358 90.4131 140.484 90.315 140.582 90.2028L141.241 90.3991C141.101 90.6375 140.891 90.8197 140.61 90.9739C140.344 91.1141 140.021 91.1842 139.642 91.1842H139.628ZM138.422 88.7448H140.764C140.764 88.5625 140.708 88.3803 140.624 88.212C140.54 88.0438 140.4 87.9036 140.231 87.7914C140.063 87.6793 139.867 87.6232 139.628 87.6232C139.432 87.6232 139.249 87.6653 139.067 87.7494C138.885 87.8195 138.744 87.9457 138.632 88.1139C138.52 88.2681 138.45 88.4924 138.436 88.7588L138.422 88.7448Z" fill="black"/>
<path id="Vector_20" d="M146.348 91.1842C146.053 91.1842 145.759 91.1422 145.478 91.044C145.197 90.9599 144.959 90.8197 144.748 90.6234C144.538 90.4412 144.398 90.2028 144.3 89.9084L145.001 89.6981C145.071 89.8944 145.183 90.0486 145.324 90.1748C145.464 90.301 145.632 90.3991 145.815 90.4552C146.011 90.5253 146.207 90.5533 146.404 90.5533C146.614 90.5533 146.825 90.5253 147.007 90.4412C147.204 90.3711 147.358 90.2589 147.47 90.1187C147.596 89.9785 147.652 89.7963 147.652 89.586C147.652 89.3757 147.568 89.1934 147.414 89.0672C147.26 88.927 146.979 88.8149 146.572 88.7168L145.885 88.5766C145.646 88.5065 145.408 88.4223 145.169 88.3102C144.931 88.198 144.734 88.0578 144.58 87.8616C144.426 87.6653 144.356 87.3989 144.356 87.0624C144.356 86.768 144.454 86.5016 144.636 86.2913C144.819 86.081 145.071 85.9128 145.366 85.8147C145.66 85.7025 145.983 85.6464 146.32 85.6464C146.572 85.6464 146.811 85.6885 147.049 85.7586C147.302 85.8287 147.526 85.9409 147.723 86.0951C147.919 86.2353 148.073 86.4315 148.186 86.6559L147.484 86.8521C147.386 86.6699 147.218 86.5297 146.993 86.4315C146.755 86.3334 146.53 86.2913 146.278 86.2913C146.081 86.2913 145.899 86.3194 145.716 86.3895C145.534 86.4596 145.394 86.5437 145.282 86.6699C145.169 86.7961 145.127 86.9503 145.127 87.1325C145.127 87.3148 145.183 87.455 145.282 87.5531C145.38 87.6513 145.52 87.7494 145.702 87.8055C145.885 87.8756 146.067 87.9176 146.278 87.9597L146.867 88.0999C147.147 88.17 147.4 88.2541 147.638 88.3663C147.877 88.4784 148.073 88.6326 148.228 88.8289C148.382 89.0392 148.452 89.3056 148.452 89.6421C148.452 89.8944 148.382 90.1187 148.27 90.315C148.157 90.5113 147.989 90.6795 147.807 90.8057C147.61 90.9459 147.386 91.044 147.133 91.1141C146.881 91.1702 146.628 91.2123 146.362 91.2123L146.348 91.1842Z" fill="black"/>
<path id="Vector_21" d="M150.977 91.1842C150.739 91.1842 150.514 91.1422 150.29 91.058C150.065 90.9739 149.869 90.8478 149.673 90.6795C149.49 90.5113 149.336 90.301 149.224 90.0346C149.111 89.7682 149.069 89.4598 149.069 89.0953C149.069 88.7308 149.125 88.4364 149.224 88.17C149.336 87.9036 149.49 87.6793 149.673 87.5111C149.855 87.3428 150.065 87.2167 150.29 87.1325C150.514 87.0484 150.739 87.0064 150.977 87.0064C151.216 87.0064 151.44 87.0484 151.665 87.1325C151.889 87.2167 152.1 87.3428 152.296 87.5111C152.478 87.6793 152.633 87.9036 152.731 88.17C152.843 88.4364 152.885 88.7448 152.885 89.0953C152.885 89.4458 152.829 89.7682 152.731 90.0346C152.619 90.301 152.478 90.5113 152.296 90.6795C152.114 90.8478 151.903 90.9739 151.665 91.058C151.44 91.1422 151.216 91.1842 150.977 91.1842ZM150.977 90.5954C151.174 90.5954 151.356 90.5393 151.538 90.4412C151.721 90.329 151.875 90.1748 151.987 89.9645C152.1 89.7402 152.156 89.4598 152.156 89.1233C152.156 88.7869 152.1 88.4924 151.987 88.2821C151.875 88.0719 151.721 87.9036 151.538 87.8055C151.356 87.6933 151.174 87.6513 150.977 87.6513C150.781 87.6513 150.598 87.7073 150.416 87.8055C150.234 87.9176 150.079 88.0719 149.967 88.2821C149.855 88.4924 149.799 88.7728 149.799 89.1233C149.799 89.4738 149.855 89.7402 149.967 89.9645C150.093 90.1748 150.248 90.343 150.416 90.4412C150.598 90.5533 150.795 90.5954 150.977 90.5954Z" fill="black"/>
<path id="Vector_22" d="M154.709 91.1001C154.442 91.1001 154.26 91.0861 154.12 91.03C153.979 90.9739 153.895 90.8758 153.839 90.7356C153.783 90.5814 153.755 90.3711 153.755 90.0907V85.7165H154.442V89.9785C154.442 90.1888 154.456 90.329 154.498 90.3991C154.541 90.4692 154.653 90.4973 154.849 90.4973H155.004V91.1001H154.709Z" fill="black"/>
<path id="Vector_23" d="M156.953 91.1842C156.645 91.1842 156.392 91.1141 156.21 91.002C156.028 90.8618 155.887 90.6935 155.789 90.4552C155.705 90.2169 155.663 89.9505 155.663 89.6561V87.1045H156.35V89.5019C156.35 89.7963 156.378 90.0206 156.448 90.1888C156.519 90.343 156.617 90.4692 156.743 90.5253C156.869 90.5954 157.01 90.6234 157.178 90.6234C157.501 90.6234 157.753 90.5113 157.921 90.287C158.104 90.0627 158.188 89.7402 158.188 89.3056V87.1185H158.875V91.1141H158.37L158.202 90.5393C158.09 90.7216 157.921 90.8898 157.739 91.016C157.557 91.1422 157.29 91.1983 156.968 91.1983L156.953 91.1842Z" fill="black"/>
<path id="Vector_24" d="M161.204 91.1001C160.952 91.1001 160.755 91.0861 160.615 91.03C160.475 90.9739 160.391 90.8758 160.334 90.7356C160.292 90.5814 160.264 90.3711 160.264 90.0907V87.6513H159.577V87.1045H160.264V86.1091H160.938V87.1045H161.709V87.6513H160.938V89.9926C160.938 90.2028 160.952 90.343 160.994 90.4131C161.036 90.4832 161.162 90.5113 161.359 90.5113H161.723V91.1141H161.218L161.204 91.1001Z" fill="black"/>
<path id="Vector_25" d="M163.295 86.3474C163.154 86.3474 163.042 86.3054 162.944 86.2072C162.846 86.1091 162.804 85.9969 162.804 85.8427C162.804 85.6885 162.846 85.5904 162.944 85.4922C163.042 85.3941 163.154 85.352 163.295 85.352C163.435 85.352 163.561 85.4081 163.659 85.4922C163.757 85.5763 163.8 85.7025 163.8 85.8427C163.8 85.9829 163.743 86.1091 163.659 86.2072C163.561 86.3054 163.435 86.3474 163.295 86.3474ZM162.958 91.1001V87.6513H162.397V87.1045H163.631V91.1001H162.958Z" fill="black"/>
<path id="Vector_26" d="M166.493 91.1842C166.255 91.1842 166.03 91.1422 165.806 91.058C165.581 90.9739 165.385 90.8478 165.188 90.6795C165.006 90.5113 164.852 90.301 164.739 90.0346C164.627 89.7682 164.585 89.4598 164.585 89.0953C164.585 88.7308 164.641 88.4364 164.739 88.17C164.852 87.9036 165.006 87.6793 165.188 87.5111C165.371 87.3428 165.581 87.2167 165.806 87.1325C166.03 87.0484 166.255 87.0064 166.493 87.0064C166.732 87.0064 166.956 87.0484 167.18 87.1325C167.405 87.2167 167.615 87.3428 167.812 87.5111C167.994 87.6793 168.148 87.9036 168.247 88.17C168.359 88.4364 168.401 88.7448 168.401 89.0953C168.401 89.4458 168.345 89.7682 168.247 90.0346C168.134 90.301 167.994 90.5113 167.812 90.6795C167.629 90.8478 167.419 90.9739 167.18 91.058C166.956 91.1422 166.732 91.1842 166.493 91.1842ZM166.493 90.5954C166.689 90.5954 166.872 90.5393 167.054 90.4412C167.237 90.329 167.391 90.1748 167.503 89.9645C167.615 89.7402 167.671 89.4598 167.671 89.1233C167.671 88.7869 167.615 88.4924 167.503 88.2821C167.391 88.0719 167.237 87.9036 167.054 87.8055C166.872 87.6933 166.689 87.6513 166.493 87.6513C166.297 87.6513 166.114 87.7073 165.932 87.8055C165.75 87.9176 165.595 88.0719 165.483 88.2821C165.371 88.4924 165.315 88.7728 165.315 89.1233C165.315 89.4738 165.371 89.7402 165.483 89.9645C165.609 90.1748 165.764 90.343 165.932 90.4412C166.114 90.5533 166.311 90.5954 166.493 90.5954Z" fill="black"/>
<path id="Vector_27" d="M169.271 91.1001V87.1045H169.762L169.944 87.7214C170.056 87.5251 170.211 87.3709 170.407 87.2447C170.617 87.1185 170.884 87.0624 171.221 87.0624C171.698 87.0624 172.034 87.2026 172.231 87.483C172.441 87.7634 172.539 88.1279 172.539 88.5766V91.1001H171.852V88.7728C171.852 88.5625 171.838 88.3803 171.796 88.212C171.754 88.0298 171.67 87.8896 171.543 87.7914C171.417 87.6793 171.235 87.6372 170.982 87.6372C170.646 87.6372 170.393 87.7494 170.211 87.9737C170.028 88.198 169.93 88.5205 169.93 88.9551V91.1141H169.243L169.271 91.1001Z" fill="black"/>
<path id="Vector_28" d="M175.037 91.1842C174.798 91.1842 174.574 91.1422 174.349 91.0721C174.125 91.002 173.928 90.8898 173.746 90.7496C173.578 90.5954 173.451 90.4131 173.353 90.1888L173.998 89.9505C174.055 90.1888 174.195 90.3571 174.391 90.4552C174.602 90.5533 174.812 90.5954 175.037 90.5954C175.191 90.5954 175.345 90.5814 175.485 90.5253C175.626 90.4832 175.738 90.4131 175.836 90.329C175.92 90.2309 175.976 90.1187 175.976 90.0066C175.976 89.7823 175.892 89.628 175.71 89.5439C175.542 89.4598 175.331 89.3897 175.093 89.3336L174.546 89.2215C174.349 89.1794 174.167 89.1233 173.998 89.0532C173.844 88.9691 173.704 88.857 173.592 88.7168C173.493 88.5625 173.451 88.3663 173.451 88.1279C173.451 87.8896 173.521 87.6933 173.662 87.5251C173.816 87.3568 173.998 87.2307 174.237 87.1466C174.475 87.0624 174.728 87.0064 174.98 87.0064C175.289 87.0064 175.584 87.0765 175.864 87.2026C176.145 87.3288 176.355 87.5391 176.482 87.8195L175.836 88.0438C175.766 87.8896 175.64 87.7634 175.457 87.6933C175.289 87.6092 175.107 87.5671 174.924 87.5671C174.714 87.5671 174.532 87.6092 174.363 87.7073C174.209 87.7915 174.125 87.9317 174.125 88.0999C174.125 88.2821 174.195 88.4083 174.335 88.4924C174.475 88.5625 174.644 88.6186 174.854 88.6607L175.373 88.7728C175.584 88.8149 175.794 88.885 175.99 88.9551C176.187 89.0392 176.341 89.1514 176.453 89.3196C176.58 89.4738 176.636 89.6841 176.636 89.9785C176.636 90.2309 176.566 90.4412 176.411 90.6234C176.257 90.8057 176.061 90.9459 175.808 91.044C175.556 91.1282 175.289 91.1842 175.023 91.1842H175.037Z" fill="black"/>
<path id="Vector_29" d="M179.947 91.1001V87.6513H179.259V87.1045H179.947V86.5157C179.947 86.2353 179.975 86.025 180.031 85.8567C180.087 85.6885 180.185 85.5904 180.339 85.5203C180.494 85.4502 180.732 85.4081 181.027 85.4081H181.448V85.9829H181.027C180.858 85.9829 180.746 86.025 180.69 86.0951C180.634 86.1652 180.606 86.2913 180.606 86.5016V87.1045H181.434V87.6513H180.606V91.1001H179.933H179.947Z" fill="black"/>
<path id="Vector_30" d="M183.861 91.1842C183.622 91.1842 183.398 91.1422 183.173 91.058C182.949 90.9739 182.752 90.8478 182.556 90.6795C182.374 90.5113 182.219 90.301 182.107 90.0346C181.995 89.7682 181.953 89.4598 181.953 89.0953C181.953 88.7308 182.009 88.4364 182.107 88.17C182.219 87.9036 182.374 87.6793 182.556 87.5111C182.738 87.3428 182.949 87.2167 183.173 87.1325C183.398 87.0484 183.622 87.0064 183.861 87.0064C184.099 87.0064 184.324 87.0484 184.548 87.1325C184.772 87.2167 184.983 87.3428 185.179 87.5111C185.362 87.6793 185.516 87.9036 185.614 88.17C185.726 88.4364 185.769 88.7448 185.769 89.0953C185.769 89.4458 185.712 89.7682 185.614 90.0346C185.502 90.301 185.362 90.5113 185.179 90.6795C184.997 90.8478 184.787 90.9739 184.548 91.058C184.324 91.1422 184.099 91.1842 183.861 91.1842ZM183.861 90.5954C184.057 90.5954 184.239 90.5393 184.422 90.4412C184.604 90.329 184.758 90.1748 184.871 89.9645C184.983 89.7402 185.039 89.4598 185.039 89.1233C185.039 88.7869 184.983 88.4924 184.871 88.2821C184.758 88.0719 184.604 87.9036 184.422 87.8055C184.239 87.6933 184.057 87.6513 183.861 87.6513C183.664 87.6513 183.482 87.7073 183.299 87.8055C183.117 87.9176 182.963 88.0719 182.851 88.2821C182.738 88.4924 182.682 88.7728 182.682 89.1233C182.682 89.4738 182.738 89.7402 182.851 89.9645C182.977 90.1748 183.131 90.343 183.299 90.4412C183.482 90.5533 183.678 90.5954 183.861 90.5954Z" fill="black"/>
<path id="Vector_31" d="M186.652 91.1001V87.1045H187.143L187.354 87.8475C187.494 87.6092 187.676 87.4129 187.915 87.2727C188.153 87.1185 188.448 87.0484 188.785 87.0484V87.7494H188.644C188.644 87.7494 188.574 87.7494 188.532 87.7494C188.083 87.7915 187.761 87.9457 187.578 88.212C187.396 88.4924 187.312 88.871 187.312 89.3757V91.0861H186.624L186.652 91.1001Z" fill="black"/>
<path id="Vector_32" d="M191.689 91.1001V85.7306H192.432V88.0158H195.252V85.7306H196.01V91.1001H195.252V88.6747H192.432V91.1001H191.689Z" fill="black"/>
<path id="Vector_33" d="M198.843 91.1842C198.605 91.1842 198.38 91.1422 198.156 91.058C197.931 90.9739 197.735 90.8478 197.539 90.6795C197.356 90.5113 197.202 90.301 197.09 90.0346C196.978 89.7682 196.935 89.4598 196.935 89.0953C196.935 88.7308 196.992 88.4364 197.09 88.17C197.202 87.9036 197.356 87.6793 197.539 87.5111C197.721 87.3428 197.931 87.2167 198.156 87.1325C198.38 87.0484 198.605 87.0064 198.843 87.0064C199.082 87.0064 199.306 87.0484 199.531 87.1325C199.755 87.2167 199.966 87.3428 200.162 87.5111C200.344 87.6793 200.499 87.9036 200.597 88.17C200.709 88.4364 200.751 88.7448 200.751 89.0953C200.751 89.4458 200.695 89.7682 200.597 90.0346C200.485 90.301 200.344 90.5113 200.162 90.6795C199.98 90.8478 199.769 90.9739 199.531 91.058C199.306 91.1422 199.082 91.1842 198.843 91.1842ZM198.843 90.5954C199.04 90.5954 199.222 90.5393 199.404 90.4412C199.587 90.329 199.741 90.1748 199.853 89.9645C199.966 89.7402 200.022 89.4598 200.022 89.1233C200.022 88.7869 199.966 88.4924 199.853 88.2821C199.741 88.0719 199.587 87.9036 199.404 87.8055C199.222 87.6933 199.04 87.6513 198.843 87.6513C198.647 87.6513 198.465 87.7073 198.282 87.8055C198.1 87.9176 197.945 88.0719 197.833 88.2821C197.721 88.4924 197.665 88.7728 197.665 89.1233C197.665 89.4738 197.721 89.7402 197.833 89.9645C197.96 90.1748 198.114 90.343 198.282 90.4412C198.465 90.5533 198.661 90.5954 198.843 90.5954Z" fill="black"/>
<path id="Vector_34" d="M201.621 91.1001V87.1045H202.112L202.294 87.7214C202.407 87.5251 202.547 87.3709 202.743 87.2447C202.94 87.1185 203.178 87.0624 203.473 87.0624C203.781 87.0624 204.034 87.1325 204.216 87.2447C204.399 87.3568 204.539 87.5251 204.623 87.7494C204.791 87.497 204.988 87.3288 205.212 87.2166C205.437 87.1045 205.703 87.0624 205.97 87.0624C206.433 87.0624 206.756 87.2026 206.966 87.483C207.162 87.7634 207.261 88.1279 207.261 88.5766V91.1001H206.587V88.7728C206.587 88.5625 206.559 88.3803 206.517 88.212C206.475 88.0298 206.405 87.8896 206.279 87.7914C206.166 87.6793 205.984 87.6372 205.731 87.6372C205.437 87.6372 205.198 87.7494 205.016 87.9737C204.848 88.198 204.763 88.5205 204.763 88.9551V91.1141H204.09V88.7869C204.09 88.5766 204.062 88.3943 204.02 88.2261C203.978 88.0438 203.908 87.9036 203.781 87.8055C203.669 87.6933 203.487 87.6513 203.234 87.6513C202.94 87.6513 202.701 87.7634 202.519 87.9877C202.35 88.212 202.266 88.5345 202.266 88.9691V91.1281H201.579L201.621 91.1001Z" fill="black"/>
<path id="Vector_35" d="M210.094 91.1842C209.673 91.1842 209.323 91.1001 209.028 90.9178C208.748 90.7356 208.523 90.4832 208.369 90.1748C208.214 89.8523 208.144 89.5019 208.144 89.1093C208.144 88.6887 208.229 88.3242 208.397 88.0298C208.565 87.7214 208.804 87.483 209.098 87.3148C209.393 87.1465 209.716 87.0624 210.094 87.0624C210.403 87.0624 210.684 87.1325 210.922 87.2447C211.175 87.3709 211.371 87.5391 211.525 87.7494C211.68 87.9597 211.806 88.198 211.876 88.4644C211.946 88.7308 211.974 89.0112 211.96 89.2916H208.888C208.888 89.628 208.972 89.8804 209.098 90.0767C209.239 90.2589 209.407 90.3991 209.589 90.4832C209.772 90.5674 209.954 90.6094 210.108 90.6094C210.333 90.6094 210.515 90.5814 210.67 90.4973C210.824 90.4131 210.95 90.315 211.048 90.2028L211.708 90.3991C211.567 90.6375 211.357 90.8197 211.076 90.9739C210.81 91.1141 210.487 91.1842 210.108 91.1842H210.094ZM208.874 88.7448H211.217C211.217 88.5625 211.161 88.3803 211.076 88.212C210.992 88.0438 210.852 87.9036 210.684 87.7914C210.515 87.6793 210.319 87.6232 210.08 87.6232C209.884 87.6232 209.702 87.6653 209.519 87.7494C209.337 87.8195 209.197 87.9457 209.084 88.1139C208.972 88.2681 208.902 88.4924 208.888 88.7588L208.874 88.7448Z" fill="black"/>
<path id="Vector_36" d="M214.387 91.1842C214.149 91.1842 213.924 91.1422 213.7 91.058C213.476 90.9739 213.279 90.8477 213.083 90.6795C212.9 90.5113 212.746 90.301 212.634 90.0346C212.522 89.7682 212.479 89.4598 212.479 89.0953C212.479 88.7308 212.536 88.4364 212.634 88.17C212.746 87.9036 212.9 87.6793 213.083 87.5111C213.265 87.3428 213.476 87.2166 213.7 87.1325C213.924 87.0484 214.149 87.0063 214.387 87.0063C214.626 87.0063 214.85 87.0484 215.075 87.1325C215.299 87.2166 215.51 87.3428 215.706 87.5111C215.888 87.6793 216.043 87.9036 216.141 88.17C216.253 88.4364 216.295 88.7448 216.295 89.0953C216.295 89.4458 216.239 89.7682 216.141 90.0346C216.029 90.301 215.888 90.5113 215.706 90.6795C215.524 90.8477 215.313 90.9739 215.075 91.058C214.85 91.1422 214.626 91.1842 214.387 91.1842ZM214.387 90.5954C214.584 90.5954 214.766 90.5393 214.949 90.4412C215.131 90.329 215.285 90.1748 215.397 89.9645C215.51 89.7402 215.566 89.4598 215.566 89.1233C215.566 88.7868 215.51 88.4924 215.397 88.2821C215.285 88.0718 215.131 87.9036 214.949 87.8055C214.766 87.6933 214.584 87.6513 214.387 87.6513C214.191 87.6513 214.009 87.7073 213.826 87.8055C213.644 87.9176 213.49 88.0718 213.377 88.2821C213.265 88.4924 213.209 88.7728 213.209 89.1233C213.209 89.4738 213.265 89.7402 213.377 89.9645C213.504 90.1748 213.658 90.343 213.826 90.4412C214.009 90.5533 214.205 90.5954 214.387 90.5954Z" fill="black"/>
<path id="Vector_37" d="M217.754 91.1001L216.604 87.1045H217.319L218.077 90.0626L218.876 87.1045H219.578L220.363 90.0626L221.135 87.1045H221.85L220.7 91.1001H220.083L219.213 87.8896L218.343 91.1001H217.726H217.754Z" fill="black"/>
<path id="Vector_38" d="M222.426 91.1001V87.1045H222.917L223.099 87.7214C223.211 87.5251 223.366 87.3709 223.562 87.2447C223.772 87.1185 224.039 87.0624 224.376 87.0624C224.853 87.0624 225.189 87.2026 225.386 87.483C225.596 87.7634 225.694 88.1279 225.694 88.5766V91.1001H225.007V88.7728C225.007 88.5625 224.993 88.3803 224.951 88.212C224.909 88.0298 224.825 87.8896 224.698 87.7914C224.572 87.6793 224.39 87.6372 224.137 87.6372C223.8 87.6372 223.548 87.7494 223.366 87.9737C223.183 88.198 223.085 88.5205 223.085 88.9551V91.1141H222.398L222.426 91.1001Z" fill="black"/>
<path id="Vector_39" d="M228.514 91.1842C228.093 91.1842 227.743 91.1001 227.448 90.9178C227.167 90.7356 226.943 90.4832 226.789 90.1748C226.634 89.8523 226.564 89.5019 226.564 89.1093C226.564 88.6887 226.648 88.3242 226.817 88.0298C226.985 87.7214 227.223 87.483 227.518 87.3148C227.813 87.1465 228.135 87.0624 228.514 87.0624C228.823 87.0624 229.103 87.1325 229.342 87.2447C229.594 87.3709 229.791 87.5391 229.945 87.7494C230.099 87.9597 230.226 88.198 230.296 88.4644C230.366 88.7308 230.394 89.0112 230.38 89.2916H227.308C227.308 89.628 227.392 89.8804 227.518 90.0767C227.658 90.2589 227.827 90.3991 228.009 90.4832C228.191 90.5674 228.374 90.6094 228.528 90.6094C228.753 90.6094 228.935 90.5814 229.089 90.4973C229.244 90.4131 229.37 90.315 229.468 90.2028L230.127 90.3991C229.987 90.6375 229.777 90.8197 229.496 90.9739C229.23 91.1141 228.907 91.1842 228.528 91.1842H228.514ZM227.308 88.7448H229.65C229.65 88.5625 229.594 88.3803 229.51 88.212C229.426 88.0438 229.286 87.9036 229.117 87.7914C228.949 87.6793 228.753 87.6232 228.514 87.6232C228.318 87.6232 228.135 87.6653 227.953 87.7494C227.771 87.8195 227.63 87.9457 227.518 88.1139C227.406 88.2681 227.336 88.4924 227.322 88.7588L227.308 88.7448Z" fill="black"/>
<path id="Vector_40" d="M231.151 91.1001V87.1045H231.642L231.853 87.8475C231.993 87.6092 232.176 87.4129 232.414 87.2727C232.653 87.1185 232.947 87.0484 233.284 87.0484V87.7494H233.144C233.144 87.7494 233.073 87.7494 233.031 87.7494C232.582 87.7915 232.26 87.9457 232.077 88.212C231.895 88.4924 231.811 88.871 231.811 89.3757V91.0861H231.123L231.151 91.1001Z" fill="black"/>
<path id="Vector_41" d="M235.262 91.1842C235.023 91.1842 234.799 91.1422 234.575 91.0721C234.35 91.002 234.154 90.8898 233.971 90.7496C233.803 90.5954 233.677 90.4131 233.578 90.1888L234.224 89.9505C234.28 90.1888 234.42 90.3571 234.617 90.4552C234.827 90.5533 235.037 90.5954 235.262 90.5954C235.416 90.5954 235.571 90.5814 235.711 90.5253C235.851 90.4832 235.963 90.4131 236.062 90.329C236.146 90.2309 236.202 90.1187 236.202 90.0066C236.202 89.7823 236.118 89.628 235.935 89.5439C235.767 89.4598 235.557 89.3897 235.318 89.3336L234.771 89.2215C234.575 89.1794 234.392 89.1233 234.224 89.0532C234.069 88.9691 233.929 88.857 233.817 88.7168C233.719 88.5625 233.677 88.3663 233.677 88.1279C233.677 87.8896 233.747 87.6933 233.887 87.5251C234.041 87.3568 234.224 87.2307 234.462 87.1466C234.701 87.0624 234.953 87.0064 235.206 87.0064C235.514 87.0064 235.809 87.0765 236.09 87.2026C236.37 87.3288 236.581 87.5391 236.707 87.8195L236.062 88.0438C235.991 87.8896 235.865 87.7634 235.683 87.6933C235.514 87.6092 235.332 87.5671 235.15 87.5671C234.939 87.5671 234.757 87.6092 234.589 87.7073C234.434 87.7915 234.35 87.9317 234.35 88.0999C234.35 88.2821 234.42 88.4083 234.56 88.4924C234.701 88.5625 234.869 88.6186 235.08 88.6607L235.599 88.7728C235.809 88.8149 236.019 88.885 236.216 88.9551C236.412 89.0392 236.567 89.1514 236.679 89.3196C236.805 89.4738 236.861 89.6841 236.861 89.9785C236.861 90.2309 236.791 90.4412 236.637 90.6234C236.482 90.8057 236.286 90.9459 236.033 91.044C235.781 91.1282 235.514 91.1842 235.248 91.1842H235.262Z" fill="black"/>
<path id="Vector_42" d="M237.675 91.1001V85.7306H238.362V87.7214C238.474 87.5251 238.629 87.3709 238.825 87.2447C239.036 87.1185 239.302 87.0624 239.639 87.0624C240.116 87.0624 240.453 87.2026 240.649 87.483C240.859 87.7634 240.958 88.1279 240.958 88.5766V91.1001H240.27V88.7728C240.27 88.5625 240.256 88.3803 240.214 88.212C240.172 88.0298 240.088 87.8896 239.962 87.7915C239.835 87.6793 239.653 87.6372 239.4 87.6372C239.064 87.6372 238.811 87.7494 238.629 87.9737C238.446 88.198 238.348 88.5205 238.348 88.9551V91.1141H237.661L237.675 91.1001Z" fill="black"/>
<path id="Vector_43" d="M242.767 86.3474C242.627 86.3474 242.515 86.3054 242.417 86.2072C242.318 86.1091 242.276 85.9969 242.276 85.8427C242.276 85.6885 242.318 85.5904 242.417 85.4922C242.515 85.3941 242.627 85.352 242.767 85.352C242.908 85.352 243.034 85.4081 243.132 85.4922C243.23 85.5763 243.272 85.7025 243.272 85.8427C243.272 85.9829 243.216 86.1091 243.132 86.2072C243.034 86.3054 242.908 86.3474 242.767 86.3474ZM242.431 91.1001V87.6513H241.869V87.1045H243.104V91.1001H242.431Z" fill="black"/>
<path id="Vector_44" d="M244.31 92.3899V87.1045H244.801L244.984 87.7354C245.11 87.5251 245.278 87.3709 245.489 87.2447C245.699 87.1185 245.966 87.0624 246.274 87.0624C246.583 87.0624 246.85 87.1465 247.116 87.3008C247.369 87.455 247.579 87.6933 247.747 88.0158C247.902 88.3242 247.986 88.7027 247.986 89.1373C247.986 89.572 247.902 89.9505 247.747 90.2589C247.593 90.5674 247.383 90.8057 247.116 90.9739C246.85 91.1281 246.569 91.2123 246.274 91.2123C245.98 91.2123 245.699 91.1422 245.489 91.03C245.278 90.9038 245.11 90.7356 244.984 90.5253V92.418H244.296L244.31 92.3899ZM246.106 90.6094C246.457 90.6094 246.723 90.4832 246.934 90.2169C247.144 89.9505 247.242 89.586 247.242 89.1093C247.242 88.6326 247.144 88.2541 246.934 88.0017C246.723 87.7494 246.457 87.6092 246.106 87.6092C245.755 87.6092 245.489 87.7354 245.292 88.0017C245.082 88.2681 244.984 88.6326 244.984 89.1093C244.984 89.586 245.082 89.9505 245.292 90.2169C245.503 90.4832 245.769 90.6094 246.106 90.6094Z" fill="black"/>
<path id="Vector_45" d="M71.8131 42.2134C82.7415 51.0878 92.5616 79.8283 78.0559 89.1514C72.6268 92.6423 66.37 93.5816 60.6462 90.0626C48.5955 82.6322 50.784 64.5468 56.3815 53.6535C58.3736 49.756 62.4419 43.4191 66.4541 41.3582C67.1696 40.9936 68.9092 40.5731 69.6667 40.6712C70.2699 40.7413 71.294 41.7928 71.8131 42.2274V42.2134Z" fill="black"/>
<path id="Vector_46" d="M59.8185 87.5531C56.8865 85.2399 55.7362 81.7209 54.9085 78.1599C52.0466 65.9207 56.6901 51.0037 67.4642 44.078C69.1897 42.9704 69.793 43.4471 71.3081 44.5406C74.6329 46.952 79.3886 55.434 80.9458 59.3595C85.0562 69.678 85.449 87.1045 71.743 90.0626C67.1836 91.044 63.466 90.4552 59.8326 87.5671L59.8185 87.5531Z" fill="#F6F2EF"/>
<path id="Vector_47" d="M66.889 47.3165C67.1135 47.5829 67.1696 47.9194 67.0994 48.2559C62.5401 56.6677 60.6883 65.6123 61.6563 75.1877C61.8106 76.772 62.6383 79.5338 62.5541 80.9078C62.5261 81.5246 61.5721 82.6602 60.8146 82.478C59.9448 82.2677 58.584 79.3936 58.3034 78.5244C55.5398 69.9864 58.5139 57.9855 63.1714 50.5971C63.5502 49.9943 65.5703 46.8679 66.0753 46.8679C66.2297 46.8679 66.7768 47.1763 66.875 47.3025L66.889 47.3165Z" fill="black"/>
<path id="Vector_48" d="M72.4444 53.331C71.9674 53.0085 71.5325 54.6068 71.4484 54.8872C70.6487 57.7332 70.8591 61.3363 71.5606 64.1682C71.785 65.1076 72.7811 67.3788 72.7951 68.0517C72.8232 68.963 71.1958 69.0331 70.5505 68.3461C70.1297 67.8975 69.1056 65.8646 68.825 65.2057C67.352 61.7428 67.3379 58.28 68.4322 54.7049C68.7268 53.7376 69.821 50.9617 70.6487 50.485C72.0516 49.6859 74.0016 51.3402 74.8153 52.4057C77.3124 55.6863 77.9577 59.4576 78.3505 63.4673C78.1821 64.8272 75.194 64.5468 74.9555 62.6962C74.6609 60.453 74.9275 58.0977 73.9595 55.9106C73.8332 55.6162 72.5847 53.4151 72.4584 53.331H72.4444Z" fill="black"/>
<path id="Vector_49" d="M75.3063 85.9128C75.3063 85.9128 74.8012 84.651 74.7591 84.4548C74.5347 83.0668 75.8534 81.8471 76.3724 80.4732C77.2282 78.258 77.4947 75.5102 76.6951 73.225C76.4426 72.4819 74.5487 69.9163 74.5627 69.72C74.5768 69.4817 75.5447 68.6405 75.9235 68.6686C77.2282 68.7807 79.3465 72.7763 79.7253 73.982C80.6933 76.9963 80.3426 80.3049 78.7152 83.0248C78.3365 83.6697 75.9937 86.4175 75.2782 85.9128H75.3063Z" fill="black"/>
<path id="Vector_50" d="M73.9735 86.8802C69.6667 86.5016 68.4602 81.763 68.6566 78.0618C68.6987 77.3748 69.0074 74.8933 69.4142 74.4587C69.6667 74.1783 71.9815 73.7157 72.2761 73.8979C72.4023 73.968 72.5286 74.2344 72.5847 74.3746C72.7811 75.0195 72.1217 77.8094 72.0937 78.8188C72.0095 80.8657 72.1498 82.6042 73.0897 84.4688C73.4966 85.2679 74.3523 85.5904 73.9876 86.8802H73.9735Z" fill="black"/>
</g>
<defs>
<clipPath id="clip0_1_498">
<rect width="248" height="128" fill="white"/>
</clipPath>
</defs>
</svg>
