<svg width="971" height="495" viewBox="0 0 971 495" fill="none" xmlns="http://www.w3.org/2000/svg">
<path d="M970.139 176.291L785.944 282.617C750.612 303.014 693.157 303.014 657.825 282.617L454.856 165.421L437.007 155.109L427.253 149.473C416.331 143.175 400.192 141.692 386.844 145.094C382.797 146.106 378.976 147.572 375.678 149.473L375.364 149.648C370.897 152.23 367.826 155.318 366.169 158.599C362.557 165.752 365.628 173.796 375.364 179.414L569.609 291.568L601.609 310.045C639.331 331.837 639.331 367.273 601.609 389.031C563.904 410.823 502.523 410.823 464.784 389.031L366.867 332.5C355.037 325.661 335.81 325.661 323.98 332.5L43.5256 494.415L0.918137 469.814L43.5256 445.212L281.373 307.899C285.717 305.386 290.393 303.188 295.331 301.286C316.67 293.103 342.754 290.713 366.884 294.08C382.5 296.261 397.331 300.867 409.492 307.899L507.408 364.429C521.628 372.63 544.764 372.63 559.001 364.429C566.608 360.05 570.15 354.17 569.609 348.395C569.156 343.405 565.614 338.45 559.001 334.646L332.756 204.015C313.18 192.726 303.758 177.739 304.509 162.891C304.84 156.208 307.23 149.578 311.697 143.314C316.408 136.649 323.439 130.421 332.774 125.029L333.088 124.855C337.921 122.081 343.12 119.655 348.617 117.579C372.153 108.698 400.96 106.36 427.288 110.53C427.445 110.565 427.585 110.582 427.742 110.6C430.882 111.106 433.988 111.717 437.042 112.414C443.236 113.81 449.22 115.607 454.891 117.771C460.195 119.795 465.22 122.15 469.896 124.837L657.86 233.362L700.467 257.963C712.297 264.803 731.524 264.803 743.354 257.963L785.961 233.362L927.532 151.637L970.139 176.238V176.291Z" fill="#9B9795"/>
<path d="M304.474 134.364V162.944H327.296C319.688 153.417 312.081 143.891 304.474 134.364Z" fill="#6D6B6A"/>
<path d="M427.254 110.582V149.508C413.034 141.29 389.899 141.29 375.661 149.508L375.347 149.683C370.881 152.265 367.81 155.353 366.152 158.633H348.582V117.614C372.119 108.733 400.926 106.395 427.254 110.565V110.582Z" fill="#6D6B6A"/>
<path d="M366.867 294.132V332.552C355.038 325.73 335.793 325.73 323.981 332.552L71.9135 478.066L66.9235 480.963L43.5086 494.467V445.247L281.339 307.933C285.683 305.421 290.359 303.223 295.297 301.338C316.635 293.155 342.72 290.747 366.85 294.132H366.867Z" fill="#9B9795"/>
<path d="M970.157 176.291L926.276 201.625L921.303 204.504L785.961 282.635V233.415L927.532 151.689L970.157 176.291Z" fill="#9B9795"/>
<path d="M970.14 144.396V176.291L927.532 151.689V119.795L970.14 144.396Z" fill="#9B9795"/>
<path d="M629.856 318.699V348.448H601.102L629.856 318.699Z" fill="#9B9795"/>
<path d="M569.574 291.602V348.447C569.121 343.457 565.579 338.502 558.966 334.698L332.721 204.067C313.145 192.778 303.723 177.791 304.474 162.943C304.805 156.26 307.195 149.63 311.662 143.366C316.373 136.701 323.404 130.472 332.739 125.081L333.053 124.907C337.886 122.132 343.085 119.707 348.581 117.631L386.844 145.128C382.796 146.14 378.975 147.606 375.678 149.508L375.364 149.682C370.897 152.265 367.826 155.353 366.169 158.633C362.557 165.787 365.628 173.83 375.364 179.448L569.609 291.602H569.574Z" fill="#6D6B6A"/>
<g style="mix-blend-mode:multiply" opacity="0.3">
<path d="M926.433 170.604V201.067L921.443 203.946V172.052L926.084 169.382C926.084 169.382 926.171 169.522 926.206 169.592C926.241 169.661 926.258 169.749 926.293 169.819C926.293 169.888 926.346 169.958 926.363 170.028C926.381 170.098 926.398 170.185 926.398 170.255C926.398 170.342 926.433 170.429 926.433 170.516C926.433 170.516 926.433 170.569 926.433 170.604Z" fill="black"/>
</g>
<path d="M0.901016 437.972V469.866L43.5083 494.467V462.573L0.901016 437.972Z" fill="#6D6B6A"/>
<path d="M494.637 23.8164V110.497" stroke="black" stroke-width="3" stroke-miterlimit="10" stroke-linecap="round"/>
<path d="M970.14 144.396L925.927 169.922L921.286 172.591L785.944 250.74C750.612 271.119 693.14 271.119 657.825 250.74L427.236 117.596C413.016 109.396 389.863 109.396 375.643 117.596L375.329 117.771C361.109 125.989 361.109 139.354 375.329 147.571L601.591 278.185C639.313 299.96 639.313 335.396 601.591 357.171C563.852 378.946 502.488 378.946 464.766 357.171L366.867 300.64C355.038 293.818 335.793 293.818 323.981 300.64L43.5083 462.555L0.900955 437.954L24.7345 424.188L29.7245 421.309L281.373 276.022C316.705 255.643 374.178 255.643 409.474 276.022L503.151 330.11L507.391 332.552C511.107 334.716 515.469 336.286 520.11 337.316C521.733 337.682 523.408 337.961 525.101 338.188C530.823 338.938 536.79 338.886 542.478 338.013C548.533 337.106 554.256 335.292 559.001 332.552C573.221 324.352 573.221 310.987 559.001 302.769L542.478 293.225L525.101 283.193L521.838 281.308L520.11 280.314L332.757 172.138C295.017 150.363 295.017 114.909 332.757 93.152L333.071 92.9776C370.793 71.2028 432.174 71.2028 469.878 92.9776L700.468 226.104C712.28 232.926 731.525 232.926 743.354 226.104L878.696 147.973L879.255 147.641L883.669 145.076L884.227 144.745L927.532 119.76L970.157 144.361L970.14 144.396Z" fill="#898342"/>
<path d="M28.4511 453.884L12.4689 444.655L292.941 282.722C320.927 266.566 366.449 266.566 394.417 282.722L492.334 339.253C513.899 351.711 548.987 351.711 570.552 339.253C592.118 326.795 592.118 306.538 570.552 294.098L344.307 163.467C313.931 145.932 313.931 117.388 344.307 99.8526L344.621 99.6781C374.998 82.1431 424.427 82.1431 454.804 99.6781L685.393 232.822C704.568 243.884 735.747 243.884 754.922 232.822L939.118 126.478L955.1 135.708L770.904 242.052C742.918 258.208 697.397 258.208 669.428 242.052L438.839 108.908C417.274 96.4502 382.186 96.4502 360.621 108.908L360.307 109.082C338.742 121.54 338.742 141.797 360.307 154.237L586.552 284.868C616.928 302.403 616.928 330.948 586.552 348.483C556.175 366.018 506.746 366.018 476.369 348.483L378.453 291.952C359.277 280.89 328.098 280.89 308.923 291.952L28.4511 453.884Z" fill="#27372D"/>
<path d="M525.083 266.409V283.229L520.093 280.35V266.409C520.093 265.031 521.21 263.914 522.588 263.914C523.966 263.914 525.083 265.031 525.083 266.409Z" fill="black"/>
<mask id="mask0_1_243" style="mask-type:luminance" maskUnits="userSpaceOnUse" x="1" y="311" width="116" height="182">
<path d="M1.04119 323.951C1.0063 323.777 8.57862 433.523 8.57862 433.523L27.3699 422.653L77.026 437.972V492.566L116.615 469.71V358.986L35.361 311.895L1.02373 323.951H1.04119Z" fill="white"/>
</mask>
<g mask="url(#mask0_1_243)">
<path d="M23.8292 351.606V438.269" stroke="black" stroke-width="3" stroke-miterlimit="10" stroke-linecap="round"/>
<path d="M91.6658 390.776V477.439" stroke="black" stroke-width="3" stroke-miterlimit="10" stroke-linecap="round"/>
<path d="M108.136 411.398L17.8613 359.265V327.3L108.136 379.417V411.398Z" fill="#BF4033"/>
<path d="M17.8612 327.302L12.6094 330.338L17.8612 333.374V327.302Z" fill="#BF4033"/>
<path d="M102.885 414.436L108.137 411.4L102.885 408.347V414.436Z" fill="#BF4033"/>
<path d="M102.884 414.435L12.6097 362.319V330.337L102.884 382.453V414.435Z" fill="#982E23"/>
<path d="M53.3462 371.57L54.9884 371.437L55.3333 368.08C55.3537 367.881 55.3466 367.755 55.3119 367.701C55.2882 367.638 55.1875 367.542 55.0097 367.414L53.8551 366.616L54.0906 365.645L56.9488 365.125L58.1616 365.355L57.5592 371.219C57.5357 371.448 57.5308 371.593 57.5446 371.655C57.5683 371.718 57.6462 371.791 57.7783 371.875L58.7825 372.521L58.6213 373.65L53.2645 373.1L53.3462 371.57Z" fill="white"/>
</g>
<g style="mix-blend-mode:multiply" opacity="0.3">
<path d="M71.914 447.133V478.068L66.924 480.964V448.564L71.5651 445.894C71.5651 445.894 71.6523 446.034 71.6871 446.104C71.722 446.173 71.7396 446.26 71.7745 446.33C71.7745 446.4 71.8268 446.47 71.8442 446.54C71.8617 446.609 71.8792 446.697 71.8792 446.766C71.8792 446.854 71.914 446.941 71.914 447.028C71.914 447.028 71.914 447.081 71.914 447.115V447.133Z" fill="black"/>
</g>
<g style="mix-blend-mode:multiply" opacity="0.3">
<path d="M71.5657 445.894L66.9245 448.564L24.7185 424.206L29.7085 421.328L70.6584 444.969L70.7107 445.022C70.7107 445.022 70.8852 445.126 70.9375 445.179C70.9898 445.231 71.0597 445.283 71.112 445.336C71.1818 445.388 71.2341 445.458 71.2865 445.51C71.3388 445.563 71.4086 445.632 71.4435 445.685C71.4959 445.754 71.5482 445.824 71.583 445.877L71.5657 445.894Z" fill="black"/>
</g>
<g style="mix-blend-mode:multiply" opacity="0.3">
<path d="M926.084 169.348L921.443 172.017L879.237 147.66L883.652 145.095L884.21 144.764L925.16 168.423L925.212 168.475C925.212 168.475 925.387 168.58 925.439 168.632C925.491 168.684 925.561 168.737 925.613 168.789C925.683 168.842 925.736 168.911 925.788 168.964C925.84 169.016 925.91 169.086 925.945 169.138C925.997 169.208 926.05 169.278 926.084 169.33V169.348Z" fill="black"/>
</g>
<mask id="mask1_1_243" style="mask-type:luminance" maskUnits="userSpaceOnUse" x="406" y="0" width="111" height="166">
<path d="M503.221 0.365234L516.883 6.87326V119.498L482.092 99.416L429.487 165.822L406.299 155.353V48.172L503.221 0.365234Z" fill="white"/>
</mask>
<g mask="url(#mask1_1_243)">
<g style="mix-blend-mode:multiply" opacity="0.3">
<path d="M424.846 115.626L429.487 118.295L472.112 93.7113L467.122 90.8149L425.754 114.701L425.701 114.753C425.701 114.753 425.527 114.858 425.474 114.91C425.422 114.963 425.352 115.015 425.3 115.067C425.23 115.12 425.178 115.189 425.125 115.242C425.073 115.294 425.003 115.364 424.968 115.416C424.916 115.486 424.864 115.556 424.829 115.608L424.846 115.626Z" fill="black"/>
</g>
<g style="mix-blend-mode:multiply" opacity="0.3">
<path d="M424.497 116.881V147.345L429.488 150.224V118.329L424.846 115.66C424.846 115.66 424.759 115.799 424.724 115.869C424.689 115.939 424.672 116.026 424.637 116.096C424.637 116.166 424.585 116.235 424.567 116.305C424.55 116.375 424.532 116.462 424.532 116.532C424.532 116.619 424.497 116.707 424.497 116.794C424.497 116.794 424.497 116.846 424.497 116.881Z" fill="black"/>
</g>
<path d="M426.8 62.9834V149.664" stroke="black" stroke-width="3" stroke-miterlimit="10" stroke-linecap="round"/>
<path d="M412.947 95.8739L503.221 43.7575V11.7759L412.947 63.8922V95.8739Z" fill="#982E23"/>
<path d="M503.221 11.7764L508.472 14.8123L503.221 17.8482V11.7764Z" fill="#982E23"/>
<path d="M418.198 98.9097L412.947 95.8738L418.198 92.8379V98.9097Z" fill="#982E23"/>
<path d="M508.473 14.8125V46.7942L468.152 70.0695L418.199 98.9106V66.9114L422.543 64.4164L477.067 32.9407L499.313 20.0992L508.473 14.8125Z" fill="#BF4033"/>
<path d="M463.204 59.2484C462.735 59.2669 462.28 59.2261 461.838 59.126C461.408 59.0362 461.029 58.9017 460.701 58.7224L461.541 56.4477L462.244 56.42C462.852 56.6843 463.572 56.8001 464.403 56.7674C465.096 56.7401 465.561 56.6044 465.797 56.3603C465.785 55.7843 465.64 55.3577 465.362 55.0804C465.084 54.7925 464.661 54.6329 464.094 54.6019L463.019 54.5481C462.635 54.5419 462.346 54.5319 462.153 54.5181C462.208 53.726 462.295 53.0874 462.414 52.6024C463.136 52.4886 463.613 52.4058 463.846 52.3539C464.078 52.302 464.273 52.2357 464.43 52.1548C464.503 51.8317 464.539 51.526 464.538 51.2378C464.514 50.8865 464.392 50.6458 464.174 50.5156C463.966 50.385 463.601 50.33 463.078 50.3505C462.46 50.3748 461.802 50.4808 461.105 50.6683L461.092 49.9322L461.352 48.3849C462.11 48.1202 462.915 47.9711 463.768 47.9375C464.727 47.8998 465.508 48.0719 466.11 48.4539C466.722 48.8248 467.042 49.346 467.068 50.0174C467.083 50.3905 467.012 50.7669 466.856 51.1466C466.701 51.5264 466.455 51.9363 466.12 52.3765C466.724 52.5236 467.172 52.7835 467.464 53.1563C467.756 53.5185 467.914 54.0193 467.939 54.6588C467.972 55.4795 467.782 56.2342 467.372 56.9228C466.972 57.6111 466.401 58.162 465.659 58.5754C464.928 58.9885 464.11 59.2128 463.204 59.2484Z" fill="white"/>
</g>
<mask id="mask2_1_243" style="mask-type:luminance" maskUnits="userSpaceOnUse" x="430" y="235" width="113" height="166">
<path d="M542.601 245.297V337.473C536.913 338.346 530.928 338.381 525.223 337.648C523.531 337.439 521.873 337.142 520.233 336.776C515.592 335.746 511.247 334.158 507.514 332.012L503.274 329.57V327.895L465.116 350.245V400.582H430.883V295.808L532.464 235.195L542.601 245.332V245.297Z" fill="white"/>
</mask>
<g mask="url(#mask2_1_243)">
<g style="mix-blend-mode:multiply" opacity="0.3">
<path d="M451.332 348.761L455.973 351.431L498.598 326.847L493.608 323.951L452.239 347.837L452.187 347.889C452.187 347.889 452.012 347.994 451.96 348.046C451.908 348.098 451.838 348.151 451.786 348.203C451.716 348.255 451.663 348.325 451.611 348.378C451.559 348.43 451.489 348.5 451.454 348.552C451.402 348.622 451.349 348.692 451.315 348.744L451.332 348.761Z" fill="black"/>
</g>
<g style="mix-blend-mode:multiply" opacity="0.3">
<path d="M450.983 350V380.464L455.973 383.343V351.448L451.332 348.779C451.332 348.779 451.245 348.918 451.21 348.988C451.175 349.058 451.158 349.145 451.123 349.215C451.123 349.285 451.071 349.355 451.053 349.424C451.036 349.494 451.018 349.581 451.018 349.651C451.018 349.738 450.983 349.826 450.983 349.913C450.983 349.913 450.983 349.965 450.983 350Z" fill="black"/>
</g>
<path d="M453.408 305.002V391.682" stroke="black" stroke-width="3" stroke-miterlimit="10" stroke-linecap="round"/>
<path d="M525.223 282.652V337.63C523.531 337.42 521.873 337.124 520.233 336.757V279.773L525.223 282.652Z" fill="black"/>
<path d="M438.298 334.786L528.573 282.67V250.688L438.298 302.804V334.786Z" fill="#982E23"/>
<path d="M528.573 250.689L533.825 253.725L528.573 256.779V250.689Z" fill="#982E23"/>
<path d="M443.55 337.822L438.298 334.786L443.55 331.75V337.822Z" fill="#982E23"/>
<path d="M443.55 337.822L533.825 285.705V253.724L443.55 305.857V337.822Z" fill="#BF4033"/>
<path d="M484.439 296.664C484.652 296.477 484.978 296.216 485.417 295.882C485.856 295.534 486.215 295.253 486.495 295.039C487.746 294.077 488.531 293.455 488.851 293.174C488.917 292.881 488.949 292.601 488.949 292.334C488.948 291.867 488.814 291.527 488.547 291.315C488.293 291.102 487.886 290.996 487.326 290.997C486.619 290.999 485.793 291.068 484.846 291.203L484.745 290.423L484.98 288.403C485.979 288.147 486.993 288.018 488.019 288.016C489.233 288.013 490.193 288.278 490.901 288.809C491.622 289.341 491.984 290.074 491.986 291.007C491.988 291.967 491.743 292.814 491.252 293.549C490.76 294.283 489.948 295.098 488.817 295.994L487.979 296.616L491.317 295.849L492.137 295.847L491.924 298.987L484.504 299.004L484.439 296.664Z" fill="white"/>
</g>
<mask id="mask3_1_243" style="mask-type:luminance" maskUnits="userSpaceOnUse" x="860" y="42" width="108" height="167">
<path d="M863.535 156.732L890.212 141.326L932.733 165.997V208.988H967.628V96.3804L873.026 42.2925H860.935L863.535 156.732Z" fill="white"/>
</mask>
<g mask="url(#mask3_1_243)">
<path d="M877.876 73.2788V159.942" stroke="black" stroke-width="3" stroke-miterlimit="10" stroke-linecap="round"/>
<path d="M946.917 110.705V197.368" stroke="black" stroke-width="3" stroke-miterlimit="10" stroke-linecap="round"/>
<path d="M962.184 133.054L871.909 80.9372V48.9556L962.184 101.072V133.054Z" fill="#BF4033"/>
<path d="M871.91 48.9575L866.658 51.9934L871.91 55.0293V48.9575Z" fill="#BF4033"/>
<path d="M956.933 136.091L962.185 133.055L956.933 130.02V136.091Z" fill="#BF4033"/>
<path d="M956.932 136.09L866.658 83.9739V51.9922L956.932 104.109V136.09Z" fill="#982E23"/>
<path d="M907.777 93.5393L903.704 93.3089L903.404 91.6994L907.783 85.7421L910.506 86.1967L910.331 91.4151L911.754 91.4956L911.721 92.0797L911.252 93.7358L910.248 93.679L910.173 96.0786L908.345 96.2457L907.627 96.205L907.777 93.5393ZM907.905 91.2779L908.086 88.088L905.883 91.1636L907.905 91.2779Z" fill="white"/>
</g>
</svg>
