<svg width="971" height="473" viewBox="0 0 971 473" fill="none" xmlns="http://www.w3.org/2000/svg">
<path d="M970.139 154.291L785.944 260.617C750.612 281.014 693.157 281.014 657.825 260.617L454.856 143.421L437.007 133.109L427.253 127.473C416.331 121.175 400.192 119.692 386.844 123.094C382.797 124.106 378.976 125.572 375.678 127.473L375.364 127.648C370.897 130.23 367.826 133.318 366.169 136.599C362.557 143.752 365.628 151.796 375.364 157.414L569.609 269.568L601.609 288.045C639.331 309.837 639.331 345.273 601.609 367.031C563.904 388.823 502.523 388.823 464.784 367.031L366.867 310.5C355.037 303.661 335.81 303.661 323.98 310.5L43.5256 472.415L0.918137 447.814L43.5256 423.212L281.373 285.899C285.717 283.386 290.393 281.188 295.331 279.286C316.67 271.103 342.754 268.713 366.884 272.08C382.5 274.261 397.331 278.867 409.492 285.899L507.408 342.429C521.628 350.63 544.764 350.63 559.001 342.429C566.608 338.05 570.15 332.17 569.609 326.395C569.156 321.405 565.614 316.45 559.001 312.646L332.756 182.015C313.18 170.726 303.758 155.739 304.509 140.891C304.84 134.208 307.23 127.578 311.697 121.314C316.408 114.649 323.439 108.421 332.774 103.029L333.088 102.855C337.921 100.081 343.12 97.6553 348.617 95.579C372.153 86.6981 400.96 84.3602 427.288 88.5302C427.445 88.5651 427.585 88.5825 427.742 88.5999C430.882 89.1059 433.988 89.7166 437.042 90.4145C443.236 91.8103 449.22 93.6074 454.891 95.771C460.195 97.7949 465.22 100.15 469.896 102.837L657.86 211.362L700.467 235.963C712.297 242.803 731.524 242.803 743.354 235.963L785.961 211.362L927.532 129.637L970.139 154.238V154.291Z" fill="#9B9795"/>
<path d="M304.474 112.365V140.944H327.296C319.688 131.418 312.081 121.891 304.474 112.365Z" fill="#6D6B6A"/>
<path d="M427.254 88.5823V127.508C413.034 119.29 389.899 119.29 375.661 127.508L375.347 127.683C370.881 130.265 367.81 133.353 366.152 136.633H348.582V95.6137C372.119 86.7328 400.926 84.3948 427.254 88.5648V88.5823Z" fill="#6D6B6A"/>
<path d="M366.867 272.132V310.552C355.038 303.73 335.793 303.73 323.981 310.552L71.9135 456.066L66.9235 458.963L43.5086 472.467V423.247L281.339 285.933C285.683 283.421 290.359 281.223 295.297 279.338C316.635 271.155 342.72 268.747 366.85 272.132H366.867Z" fill="#9B9795"/>
<path d="M970.157 154.291L926.276 179.625L921.303 182.504L785.961 260.635V211.415L927.532 129.689L970.157 154.291Z" fill="#9B9795"/>
<path d="M970.14 122.396V154.291L927.532 129.689V97.7949L970.14 122.396Z" fill="#9B9795"/>
<path d="M629.856 296.699V326.448H601.102L629.856 296.699Z" fill="#9B9795"/>
<path d="M569.574 269.602V326.447C569.121 321.457 565.579 316.502 558.966 312.698L332.721 182.067C313.145 170.778 303.723 155.791 304.474 140.943C304.805 134.26 307.195 127.63 311.662 121.366C316.373 114.701 323.404 108.472 332.739 103.081L333.053 102.907C337.886 100.132 343.085 97.7071 348.581 95.6309L386.844 123.128C382.796 124.14 378.975 125.606 375.678 127.508L375.364 127.682C370.897 130.265 367.826 133.353 366.169 136.633C362.557 143.787 365.628 151.83 375.364 157.448L569.609 269.602H569.574Z" fill="#6D6B6A"/>
<g style="mix-blend-mode:multiply" opacity="0.3">
<path d="M926.433 148.604V179.067L921.443 181.946V150.052L926.084 147.382C926.084 147.382 926.171 147.522 926.206 147.592C926.241 147.661 926.258 147.749 926.293 147.819C926.293 147.888 926.346 147.958 926.363 148.028C926.381 148.098 926.398 148.185 926.398 148.255C926.398 148.342 926.433 148.429 926.433 148.516C926.433 148.516 926.433 148.569 926.433 148.604Z" fill="black"/>
</g>
<path d="M0.901016 415.972V447.866L43.5083 472.467V440.573L0.901016 415.972Z" fill="#6D6B6A"/>
<path d="M494.637 1.81641V88.4967" stroke="black" stroke-width="3" stroke-miterlimit="10" stroke-linecap="round"/>
<path d="M970.14 122.396L925.927 147.922L921.286 150.591L785.944 228.74C750.612 249.119 693.14 249.119 657.825 228.74L427.236 95.5963C413.016 87.3958 389.863 87.3958 375.643 95.5963L375.329 95.7708C361.109 103.989 361.109 117.354 375.329 125.571L601.591 256.185C639.313 277.96 639.313 313.396 601.591 335.171C563.852 356.946 502.488 356.946 464.766 335.171L366.867 278.64C355.038 271.818 335.793 271.818 323.981 278.64L43.5083 440.555L0.900955 415.954L24.7345 402.188L29.7245 399.309L281.373 254.022C316.705 233.643 374.178 233.643 409.474 254.022L503.151 308.11L507.391 310.552C511.107 312.716 515.469 314.286 520.11 315.316C521.733 315.682 523.408 315.961 525.101 316.188C530.823 316.938 536.79 316.886 542.478 316.013C548.533 315.106 554.256 313.292 559.001 310.552C573.221 302.352 573.221 288.987 559.001 280.769L542.478 271.225L525.101 261.193L521.838 259.308L520.11 258.314L332.757 150.138C295.017 128.363 295.017 92.9093 332.757 71.152L333.071 70.9776C370.793 49.2028 432.174 49.2028 469.878 70.9776L700.468 204.104C712.28 210.926 731.525 210.926 743.354 204.104L878.696 125.973L879.255 125.641L883.669 123.076L884.227 122.745L927.532 97.7598L970.157 122.361L970.14 122.396Z" fill="#898342"/>
<path d="M28.4511 431.884L12.4689 422.655L292.941 260.722C320.927 244.566 366.449 244.566 394.417 260.722L492.334 317.253C513.899 329.711 548.987 329.711 570.552 317.253C592.118 304.795 592.118 284.538 570.552 272.098L344.307 141.467C313.931 123.932 313.931 95.3875 344.307 77.8526L344.621 77.6781C374.998 60.1431 424.427 60.1431 454.804 77.6781L685.393 210.822C704.568 221.884 735.747 221.884 754.922 210.822L939.118 104.478L955.1 113.708L770.904 220.052C742.918 236.208 697.397 236.208 669.428 220.052L438.839 86.9079C417.274 74.4502 382.186 74.4502 360.621 86.9079L360.307 87.0824C338.742 99.5401 338.742 119.797 360.307 132.237L586.552 262.868C616.928 280.403 616.928 308.948 586.552 326.483C556.175 344.018 506.746 344.018 476.369 326.483L378.453 269.952C359.277 258.89 328.098 258.89 308.923 269.952L28.4511 431.884Z" fill="#27372D"/>
<path d="M525.083 244.409V261.229L520.093 258.35V244.409C520.093 243.031 521.21 241.914 522.588 241.914C523.966 241.914 525.083 243.031 525.083 244.409Z" fill="black"/>
<mask id="mask0_1_243" style="mask-type:luminance" maskUnits="userSpaceOnUse" x="1" y="289" width="116" height="182">
<path d="M1.04119 301.951C1.0063 301.777 8.57862 411.523 8.57862 411.523L27.3699 400.653L77.026 415.972V470.566L116.615 447.71V336.986L35.361 289.895L1.02373 301.951H1.04119Z" fill="white"/>
</mask>
<g mask="url(#mask0_1_243)">
<path d="M23.8292 329.606V416.269" stroke="black" stroke-width="3" stroke-miterlimit="10" stroke-linecap="round"/>
<path d="M91.6658 368.776V455.439" stroke="black" stroke-width="3" stroke-miterlimit="10" stroke-linecap="round"/>
<path d="M108.136 389.398L17.8613 337.265V305.3L108.136 357.417V389.398Z" fill="#BF4033"/>
<path d="M17.8612 305.302L12.6094 308.338L17.8612 311.374V305.302Z" fill="#BF4033"/>
<path d="M102.885 392.436L108.137 389.4L102.885 386.347V392.436Z" fill="#BF4033"/>
<path d="M102.884 392.435L12.6097 340.319V308.337L102.884 360.453V392.435Z" fill="#982E23"/>
<path d="M53.3462 349.57L54.9884 349.437L55.3333 346.08C55.3537 345.881 55.3466 345.755 55.3119 345.701C55.2882 345.638 55.1875 345.542 55.0097 345.414L53.8551 344.616L54.0906 343.645L56.9488 343.125L58.1616 343.355L57.5592 349.219C57.5357 349.448 57.5308 349.593 57.5446 349.655C57.5683 349.718 57.6462 349.791 57.7783 349.875L58.7825 350.521L58.6213 351.65L53.2645 351.1L53.3462 349.57Z" fill="white"/>
</g>
<g style="mix-blend-mode:multiply" opacity="0.3">
<path d="M71.914 425.133V456.068L66.924 458.964V426.564L71.5651 423.894C71.5651 423.894 71.6523 424.034 71.6871 424.104C71.722 424.173 71.7396 424.26 71.7745 424.33C71.7745 424.4 71.8268 424.47 71.8442 424.54C71.8617 424.609 71.8792 424.697 71.8792 424.766C71.8792 424.854 71.914 424.941 71.914 425.028C71.914 425.028 71.914 425.081 71.914 425.115V425.133Z" fill="black"/>
</g>
<g style="mix-blend-mode:multiply" opacity="0.3">
<path d="M71.5657 423.894L66.9245 426.564L24.7185 402.206L29.7085 399.328L70.6584 422.969L70.7107 423.022C70.7107 423.022 70.8852 423.126 70.9375 423.179C70.9898 423.231 71.0597 423.283 71.112 423.336C71.1818 423.388 71.2341 423.458 71.2865 423.51C71.3388 423.563 71.4086 423.632 71.4435 423.685C71.4959 423.754 71.5482 423.824 71.583 423.877L71.5657 423.894Z" fill="black"/>
</g>
<g style="mix-blend-mode:multiply" opacity="0.3">
<path d="M926.084 147.348L921.443 150.017L879.237 125.66L883.652 123.095L884.21 122.764L925.16 146.423L925.212 146.475C925.212 146.475 925.387 146.58 925.439 146.632C925.491 146.684 925.561 146.737 925.613 146.789C925.683 146.842 925.736 146.911 925.788 146.964C925.84 147.016 925.91 147.086 925.945 147.138C925.997 147.208 926.05 147.278 926.084 147.33V147.348Z" fill="black"/>
</g>
</svg>
