<svg width="285" height="320" viewBox="0 0 285 320" fill="none" xmlns="http://www.w3.org/2000/svg">
<rect x="35" width="250" height="320" fill="#647B64" fill-opacity="0.77"/>
<path d="M87.8351 164.432L89.2271 164.048V157.12L87.8831 157.232L86.6991 158.656L85.5311 158.56C85.5311 157.675 85.5738 156.56 85.6591 155.216H95.6751C95.7605 156.56 95.8031 157.675 95.8031 158.56L94.6511 158.656L93.4511 157.232L92.1391 157.12V163.408C92.1391 163.664 92.1551 163.829 92.1871 163.904C92.2191 163.979 92.3098 164.053 92.4591 164.128L93.4511 164.72L93.3871 166H87.9151L87.8351 164.432ZM100.289 166.192C99.041 166.192 98.0757 165.813 97.393 165.056C96.721 164.299 96.385 163.253 96.385 161.92C96.385 160.992 96.5503 160.197 96.881 159.536C97.2117 158.864 97.681 158.352 98.289 158C98.897 157.648 99.6063 157.472 100.417 157.472C101.622 157.472 102.545 157.856 103.185 158.624C103.836 159.392 104.145 160.485 104.113 161.904L99.249 162.8C99.3983 163.248 99.6063 163.579 99.873 163.792C100.15 163.995 100.513 164.096 100.961 164.096C101.27 164.096 101.638 164.053 102.065 163.968C102.492 163.872 102.924 163.744 103.361 163.584L103.729 165.168C103.334 165.467 102.822 165.712 102.193 165.904C101.564 166.096 100.929 166.192 100.289 166.192ZM101.489 160.56C101.468 160.155 101.35 159.861 101.137 159.68C100.934 159.488 100.646 159.392 100.273 159.392C99.9637 159.392 99.6703 159.435 99.393 159.52C99.169 160.043 99.0677 160.608 99.089 161.216L101.489 160.56ZM109.726 166.208C108.489 166.208 107.529 165.829 106.846 165.072C106.163 164.304 105.822 163.248 105.822 161.904C105.822 160.507 106.185 159.419 106.91 158.64C107.646 157.861 108.649 157.472 109.918 157.472C110.878 157.472 111.907 157.691 113.006 158.128C112.985 158.437 112.937 158.848 112.862 159.36C112.787 159.861 112.707 160.325 112.622 160.752L111.55 160.848L110.558 159.584C110.291 159.531 109.993 159.504 109.662 159.504C109.395 159.504 109.15 159.52 108.926 159.552C108.681 160.021 108.558 160.683 108.558 161.536C108.558 162.411 108.713 163.061 109.022 163.488C109.331 163.904 109.801 164.112 110.43 164.112C110.729 164.112 111.091 164.069 111.518 163.984C111.945 163.888 112.382 163.755 112.83 163.584L113.214 165.184C112.787 165.483 112.254 165.728 111.614 165.92C110.985 166.112 110.355 166.208 109.726 166.208ZM114.513 164.48L115.505 164.192V156.528C115.505 156.293 115.489 156.144 115.457 156.08C115.425 156.005 115.34 155.925 115.201 155.84L114.497 155.472L114.545 154.256L115.041 154.176C116.449 153.92 117.436 153.781 118.001 153.76C118.097 154.016 118.166 154.293 118.209 154.592V158.24C118.796 157.973 119.292 157.781 119.697 157.664C120.113 157.536 120.524 157.472 120.929 157.472C122.593 157.472 123.425 158.485 123.425 160.512V163.664C123.425 163.888 123.441 164.037 123.473 164.112C123.505 164.187 123.596 164.267 123.745 164.352L124.513 164.8L124.449 166H120.033L119.953 164.48L120.737 164.256V161.216C120.737 160.747 120.721 160.416 120.689 160.224C120.668 160.021 120.582 159.867 120.433 159.76C120.284 159.653 120.033 159.6 119.681 159.6C119.34 159.6 118.849 159.659 118.209 159.776V163.664C118.209 163.888 118.225 164.037 118.257 164.112C118.289 164.187 118.374 164.267 118.513 164.352L119.297 164.8L119.233 166H114.593L114.513 164.48ZM125.715 164.464L126.707 164.176V160.304C126.707 160.069 126.691 159.92 126.659 159.856C126.627 159.781 126.542 159.701 126.403 159.616L125.699 159.232L125.747 158.032L126.099 157.968C127.497 157.691 128.505 157.541 129.123 157.52C129.209 157.744 129.278 157.989 129.331 158.256C129.982 157.957 130.51 157.755 130.915 157.648C131.331 157.531 131.721 157.472 132.083 157.472C133.779 157.472 134.627 158.485 134.627 160.512V163.648C134.627 163.872 134.643 164.021 134.675 164.096C134.707 164.171 134.798 164.251 134.947 164.336L135.715 164.784L135.651 165.984H131.235L131.155 164.464L131.939 164.24V161.216C131.939 160.736 131.923 160.4 131.891 160.208C131.859 160.016 131.769 159.867 131.619 159.76C131.481 159.653 131.23 159.6 130.867 159.6C130.483 159.6 129.998 159.659 129.411 159.776V163.648C129.411 163.872 129.427 164.021 129.459 164.096C129.491 164.171 129.577 164.251 129.715 164.336L130.499 164.784L130.435 165.984H125.795L125.715 164.464ZM137.574 154.16L140.294 153.44L140.95 155.872L138.246 156.608L137.574 154.16ZM136.902 164.528L138.022 164.192V160.304C138.022 160.069 138.001 159.92 137.958 159.856C137.926 159.781 137.835 159.701 137.686 159.616L136.982 159.232L137.062 158.032C137.947 157.861 138.63 157.739 139.11 157.664C139.601 157.579 140.049 157.531 140.454 157.52C140.593 157.979 140.678 158.32 140.71 158.544V163.664C140.71 163.888 140.726 164.037 140.758 164.112C140.79 164.187 140.881 164.267 141.03 164.352L141.814 164.8L141.75 166H136.95L136.902 164.528ZM146.833 166.208C145.595 166.208 144.635 165.829 143.953 165.072C143.27 164.304 142.929 163.248 142.929 161.904C142.929 160.507 143.291 159.419 144.017 158.64C144.753 157.861 145.755 157.472 147.025 157.472C147.985 157.472 149.014 157.691 150.113 158.128C150.091 158.437 150.043 158.848 149.969 159.36C149.894 159.861 149.814 160.325 149.729 160.752L148.657 160.848L147.665 159.584C147.398 159.531 147.099 159.504 146.769 159.504C146.502 159.504 146.257 159.52 146.033 159.552C145.787 160.021 145.665 160.683 145.665 161.536C145.665 162.411 145.819 163.061 146.129 163.488C146.438 163.904 146.907 164.112 147.537 164.112C147.835 164.112 148.198 164.069 148.625 163.984C149.051 163.888 149.489 163.755 149.937 163.584L150.321 165.184C149.894 165.483 149.361 165.728 148.721 165.92C148.091 166.112 147.462 166.208 146.833 166.208ZM154.268 166.208C153.542 166.208 152.961 166.011 152.524 165.616C152.086 165.211 151.868 164.693 151.868 164.064C151.868 163.221 152.289 162.56 153.132 162.08C153.985 161.6 155.222 161.328 156.844 161.264C156.844 160.763 156.801 160.395 156.716 160.16C156.641 159.915 156.497 159.749 156.284 159.664C156.081 159.568 155.766 159.52 155.34 159.52C154.902 159.52 154.593 159.536 154.412 159.568L153.756 160.864L152.572 160.784C152.39 159.931 152.262 159.045 152.188 158.128C152.785 157.925 153.436 157.765 154.14 157.648C154.854 157.531 155.521 157.472 156.14 157.472C157.27 157.472 158.081 157.696 158.572 158.144C159.062 158.581 159.308 159.312 159.308 160.336V163.68C159.308 163.872 159.324 164.005 159.356 164.08C159.398 164.155 159.484 164.229 159.612 164.304L160.252 164.672L160.188 165.664C158.95 165.952 157.974 166.112 157.26 166.144C157.238 166.08 157.206 165.968 157.164 165.808C157.121 165.637 157.084 165.477 157.052 165.328C156.636 165.595 156.177 165.808 155.676 165.968C155.185 166.128 154.716 166.208 154.268 166.208ZM155.34 164.4C155.766 164.4 156.284 164.256 156.892 163.968L156.828 162.752C156.572 162.731 156.401 162.72 156.316 162.72C156.028 162.72 155.692 162.752 155.308 162.816C154.924 162.869 154.62 162.933 154.396 163.008C154.364 163.147 154.348 163.275 154.348 163.392C154.348 163.712 154.433 163.963 154.604 164.144C154.785 164.315 155.03 164.4 155.34 164.4ZM161.447 164.528L162.567 164.192V156.528C162.567 156.293 162.546 156.144 162.503 156.08C162.471 156.005 162.38 155.925 162.231 155.84L161.527 155.472L161.607 154.256C161.82 154.213 161.986 154.187 162.103 154.176C163.511 153.92 164.492 153.781 165.047 153.76C165.154 154.005 165.223 154.283 165.255 154.592V163.664C165.255 163.888 165.271 164.037 165.303 164.112C165.335 164.187 165.426 164.267 165.575 164.352L166.359 164.8L166.295 166H161.495L161.447 164.528ZM175.22 166.064C174.068 166.064 172.916 166.021 171.764 165.936L171.684 164.368L172.852 164.048V157.952C172.852 157.675 172.831 157.493 172.788 157.408C172.746 157.312 172.634 157.227 172.452 157.152L171.62 156.688L171.716 155.36C173.444 155.136 174.927 155.024 176.164 155.024C177.679 155.024 178.788 155.248 179.492 155.696C180.196 156.144 180.548 156.853 180.548 157.824C180.548 158.304 180.474 158.731 180.324 159.104C180.175 159.467 179.946 159.797 179.636 160.096C180.703 160.576 181.236 161.355 181.236 162.432C181.236 163.392 180.97 164.165 180.436 164.752C179.903 165.339 179.119 165.723 178.084 165.904C177.7 166.011 176.746 166.064 175.22 166.064ZM177.572 159.584C177.679 159.307 177.732 158.843 177.732 158.192C177.732 157.744 177.626 157.413 177.412 157.2C177.21 156.987 176.895 156.869 176.468 156.848C176.191 156.848 175.914 156.859 175.636 156.88V159.552C175.818 159.541 176.052 159.536 176.34 159.536C176.778 159.536 177.188 159.552 177.572 159.584ZM176.9 164.08C177.508 164.08 177.94 164.027 178.196 163.92C178.303 163.493 178.356 163.115 178.356 162.784C178.356 162.251 178.218 161.872 177.94 161.648C177.663 161.424 177.194 161.312 176.532 161.312C176.394 161.312 176.218 161.323 176.004 161.344L175.636 161.36V163.968C176.01 164.043 176.431 164.08 176.9 164.08ZM187.051 166.208C185.697 166.208 184.683 165.861 184.011 165.168C183.35 164.475 183.019 163.413 183.019 161.984C183.019 161.067 183.185 160.267 183.515 159.584C183.857 158.901 184.342 158.379 184.971 158.016C185.601 157.653 186.342 157.472 187.195 157.472C189.958 157.472 191.339 158.901 191.339 161.76C191.339 163.157 190.961 164.251 190.203 165.04C189.457 165.819 188.406 166.208 187.051 166.208ZM187.307 164.336C187.521 164.336 187.707 164.32 187.867 164.288C188.027 164.245 188.198 164.181 188.379 164.096C188.443 163.851 188.497 163.536 188.539 163.152C188.582 162.768 188.603 162.4 188.603 162.048C188.603 161.184 188.465 160.528 188.187 160.08C187.921 159.632 187.521 159.408 186.987 159.408C186.635 159.408 186.278 159.456 185.915 159.552C185.841 159.712 185.782 159.973 185.739 160.336C185.697 160.688 185.675 161.093 185.675 161.552C185.675 162.448 185.814 163.136 186.091 163.616C186.379 164.096 186.785 164.336 187.307 164.336ZM197.129 166.208C195.774 166.208 194.761 165.861 194.089 165.168C193.428 164.475 193.097 163.413 193.097 161.984C193.097 161.067 193.262 160.267 193.593 159.584C193.934 158.901 194.42 158.379 195.049 158.016C195.678 157.653 196.42 157.472 197.273 157.472C200.036 157.472 201.417 158.901 201.417 161.76C201.417 163.157 201.038 164.251 200.281 165.04C199.534 165.819 198.484 166.208 197.129 166.208ZM197.385 164.336C197.598 164.336 197.785 164.32 197.945 164.288C198.105 164.245 198.276 164.181 198.457 164.096C198.521 163.851 198.574 163.536 198.617 163.152C198.66 162.768 198.681 162.4 198.681 162.048C198.681 161.184 198.542 160.528 198.265 160.08C197.998 159.632 197.598 159.408 197.065 159.408C196.713 159.408 196.356 159.456 195.993 159.552C195.918 159.712 195.86 159.973 195.817 160.336C195.774 160.688 195.753 161.093 195.753 161.552C195.753 162.448 195.892 163.136 196.169 163.616C196.457 164.096 196.862 164.336 197.385 164.336ZM202.475 164.48L203.467 164.192V156.528C203.467 156.293 203.451 156.144 203.419 156.08C203.387 156.005 203.302 155.925 203.163 155.84L202.459 155.472L202.507 154.256L203.003 154.176C204.411 153.92 205.398 153.781 205.963 153.76C206.059 154.016 206.129 154.293 206.171 154.592V161.104L207.947 159.376C208.001 159.323 208.027 159.264 208.027 159.2C208.027 159.147 208.011 159.104 207.979 159.072L207.531 158.512L207.707 157.632H211.259C211.355 157.984 211.419 158.363 211.451 158.768L208.795 161.04L211.883 165.296V166H209.067L206.171 161.84V163.664C206.171 163.888 206.187 164.037 206.219 164.112C206.251 164.187 206.337 164.267 206.475 164.352L207.259 164.8L207.195 166H202.555L202.475 164.48ZM213.006 164.528L214.126 164.192V156.528C214.126 156.293 214.104 156.144 214.062 156.08C214.03 156.005 213.939 155.925 213.79 155.84L213.086 155.472L213.166 154.256C213.379 154.213 213.544 154.187 213.662 154.176C215.07 153.92 216.051 153.781 216.606 153.76C216.712 154.005 216.782 154.283 216.814 154.592V163.664C216.814 163.888 216.83 164.037 216.862 164.112C216.894 164.187 216.984 164.267 217.134 164.352L217.918 164.8L217.854 166H213.054L213.006 164.528ZM222.937 166.192C221.689 166.192 220.723 165.813 220.041 165.056C219.369 164.299 219.033 163.253 219.033 161.92C219.033 160.992 219.198 160.197 219.529 159.536C219.859 158.864 220.329 158.352 220.937 158C221.545 157.648 222.254 157.472 223.065 157.472C224.27 157.472 225.193 157.856 225.833 158.624C226.483 159.392 226.793 160.485 226.761 161.904L221.897 162.8C222.046 163.248 222.254 163.579 222.521 163.792C222.798 163.995 223.161 164.096 223.609 164.096C223.918 164.096 224.286 164.053 224.713 163.968C225.139 163.872 225.571 163.744 226.009 163.584L226.377 165.168C225.982 165.467 225.47 165.712 224.841 165.904C224.211 166.096 223.577 166.192 222.937 166.192ZM224.137 160.56C224.115 160.155 223.998 159.861 223.785 159.68C223.582 159.488 223.294 159.392 222.921 159.392C222.611 159.392 222.318 159.435 222.041 159.52C221.817 160.043 221.715 160.608 221.737 161.216L224.137 160.56ZM231.813 166.208C230.874 166.208 230.181 165.979 229.733 165.52C229.285 165.051 229.061 164.341 229.061 163.392V159.504H227.941V158.336L230.821 155.712L231.749 155.824V157.632H234.437V159.52H231.749V162.816C231.749 163.328 231.818 163.669 231.957 163.84C232.106 164.011 232.389 164.096 232.805 164.096C233.157 164.096 233.647 164.048 234.277 163.952L234.469 165.584C234.085 165.765 233.653 165.915 233.173 166.032C232.703 166.149 232.25 166.208 231.813 166.208Z" fill="white"/>
<g clip-path="url(#clip0_1_435)">
<path d="M100.76 102.6V60.8999" stroke="black"/>
<path d="M113.15 56.7898H119.61V91.7698H126.08V97.9398H113.15V56.7798V56.7898Z" fill="black"/>
<path d="M132.31 98.5399C130.66 98.5399 129.41 97.9799 128.55 96.8599C127.69 95.7399 127.26 94.1399 127.26 92.0699V87.3799C127.26 84.5599 127.96 82.4299 129.37 81.0099C130.78 79.5699 132.82 78.8599 135.49 78.8599H136.55V73.5599C136.55 72.5499 136.42 71.8499 136.16 71.4799C135.91 71.1099 135.57 70.9199 135.14 70.9199C134.71 70.9199 134.36 71.1099 134.11 71.4799C133.86 71.8499 133.72 72.5499 133.72 73.5599V76.4999H127.55V74.1499C127.55 71.3299 128.22 69.1999 129.57 67.7799C130.93 66.3399 132.79 65.6299 135.14 65.6299C137.49 65.6299 139.35 66.3499 140.7 67.7799C142.05 69.2099 142.72 71.3299 142.72 74.1499V98.2499H138.9L137.13 95.6099C136.77 96.1699 136.38 96.6599 135.95 97.0899C135.56 97.4799 135.05 97.8199 134.44 98.1099C133.84 98.3999 133.12 98.5599 132.3 98.5599L132.31 98.5399ZM134.95 93.2399C135.27 93.2399 135.53 93.1299 135.74 92.8999C135.96 92.6599 136.13 92.3799 136.26 92.0699C136.41 91.7299 136.51 91.3299 136.55 90.8899V83.8399H135.49C134.91 83.8399 134.42 84.0799 134.03 84.5399C133.64 85.0099 133.44 85.7599 133.44 86.7799V90.5999C133.44 91.6199 133.58 92.3099 133.87 92.6799C134.16 93.0499 134.53 93.2399 134.96 93.2399H134.95Z" fill="black"/>
<path d="M146.24 65.9101H150.07L151.82 68.5501C152.21 68.0001 152.65 67.5201 153.13 67.0901C153.56 66.7401 154.08 66.4001 154.68 66.0901C155.29 65.7701 156.01 65.6201 156.83 65.6201C158.47 65.6201 159.73 66.1801 160.59 67.3001C161.45 68.4201 161.88 70.0201 161.88 72.0901V97.9601H155.71V73.5601C155.71 72.5501 155.56 71.8501 155.26 71.4801C154.96 71.1101 154.6 70.9201 154.17 70.9201C153.78 70.9201 153.47 71.0401 153.25 71.2801C153.04 71.5101 152.88 71.7801 152.76 72.1001C152.61 72.4601 152.49 72.8501 152.4 73.2801V97.9701H146.23V65.9301L146.24 65.9101Z" fill="black"/>
<path d="M171.07 98.5401C169.3 98.5401 167.91 97.9201 166.91 96.6901C165.91 95.4601 165.42 93.7201 165.42 91.4801V72.0901C165.42 70.0201 165.85 68.4201 166.71 67.3001C167.58 66.1801 168.84 65.6201 170.49 65.6201C171.23 65.6201 171.86 65.7401 172.38 65.9801C172.91 66.2101 173.38 66.4801 173.77 66.8001C174.2 67.1601 174.57 67.5501 174.89 67.9801V56.8101H181.06V98.2501H177.24L175.76 95.9101C175.45 96.4201 175.08 96.8701 174.64 97.2601C174.26 97.5801 173.76 97.8701 173.15 98.1401C172.55 98.4201 171.85 98.5601 171.07 98.5601V98.5401ZM173.12 93.2401C173.47 93.2401 173.77 93.1301 174 92.9001C174.24 92.6601 174.42 92.3801 174.53 92.0701C174.69 91.7301 174.81 91.3301 174.89 90.8901V73.2601C174.81 72.8301 174.69 72.4401 174.53 72.0801C174.42 71.7601 174.24 71.4901 174 71.2601C173.77 71.0201 173.48 70.9001 173.12 70.9001C172.69 70.9001 172.32 71.0901 172.03 71.4601C171.73 71.8301 171.58 72.5301 171.58 73.5401V90.5901C171.58 91.6101 171.73 92.3001 172.03 92.6701C172.32 93.0401 172.69 93.2301 173.12 93.2301V93.2401Z" fill="black"/>
<path d="M192.52 98.54C190.01 98.54 188.01 97.74 186.52 96.13C185.03 94.52 184.29 92.09 184.29 88.84V84.72H190.75V89.43C190.75 90.76 190.94 91.63 191.31 92.04C191.68 92.45 192.09 92.66 192.52 92.66C192.95 92.66 193.35 92.46 193.73 92.04C194.1 91.63 194.29 90.76 194.29 89.43C194.29 88.57 194.25 87.84 194.18 87.23C194.1 86.62 193.91 85.97 193.59 85.29C193.27 84.6 192.8 83.79 192.17 82.85C191.55 81.9 190.69 80.66 189.6 79.13C188.5 77.61 187.6 76.31 186.92 75.23C186.24 74.15 185.7 73.14 185.31 72.2C184.92 71.26 184.65 70.32 184.51 69.36C184.37 68.39 184.31 67.25 184.31 65.91C184.31 62.66 185.05 60.23 186.54 58.62C188.03 57.01 190.03 56.21 192.54 56.21C195.05 56.21 197.05 57.01 198.54 58.62C200.03 60.23 200.78 62.66 200.78 65.91V69.43H194.31V65.32C194.31 63.98 194.12 63.11 193.75 62.69C193.38 62.28 192.97 62.07 192.54 62.07C192.11 62.07 191.71 62.28 191.33 62.69C190.96 63.1 190.77 63.98 190.77 65.32C190.77 66.22 190.81 66.97 190.88 67.56C190.97 68.14 191.16 68.78 191.47 69.47C191.79 70.15 192.25 70.96 192.88 71.91C193.51 72.85 194.38 74.08 195.48 75.61C196.58 77.13 197.47 78.43 198.15 79.51C198.84 80.59 199.38 81.6 199.77 82.54C200.16 83.48 200.42 84.43 200.56 85.4C200.7 86.36 200.78 87.5 200.78 88.83C200.78 92.09 200.03 94.51 198.54 96.12C197.05 97.73 195.06 98.53 192.54 98.53L192.52 98.54Z" fill="black"/>
<path d="M211.1 98.5399C208.71 98.5399 206.82 97.8299 205.44 96.3999C204.07 94.9599 203.39 92.8399 203.39 90.0099V74.1299C203.39 71.3099 204.07 69.1799 205.44 67.7599C206.82 66.3199 208.7 65.6099 211.1 65.6099C213.5 65.6099 215.32 66.3299 216.71 67.7599C218.11 69.1899 218.81 71.3099 218.81 74.1299V84.1199H209.57V90.5899C209.57 91.6099 209.71 92.2999 209.99 92.6699C210.27 93.0399 210.64 93.2299 211.11 93.2299C211.54 93.2299 211.9 93.0399 212.19 92.6699C212.48 92.2999 212.64 91.5999 212.64 90.5899V87.6499H218.83V89.9999C218.83 92.8199 218.13 94.9499 216.73 96.3899C215.34 97.8199 213.47 98.5299 211.12 98.5299L211.1 98.5399ZM212.62 79.1299V73.5499C212.62 72.5399 212.47 71.8399 212.17 71.4699C211.88 71.0999 211.52 70.9099 211.09 70.9099C210.62 70.9099 210.25 71.0999 209.97 71.4699C209.69 71.8399 209.55 72.5399 209.55 73.5499V79.1299H212.61H212.62Z" fill="black"/>
<path d="M229.45 98.5399C227.06 98.5399 225.17 97.8299 223.79 96.3999C222.42 94.9599 221.74 92.8399 221.74 90.0099V74.1299C221.74 71.3099 222.42 69.1799 223.79 67.7599C225.17 66.3199 227.05 65.6099 229.45 65.6099C231.85 65.6099 233.67 66.3299 235.06 67.7599C236.46 69.1899 237.16 71.3099 237.16 74.1299V84.1199H227.92V90.5899C227.92 91.6099 228.06 92.2999 228.34 92.6699C228.62 93.0399 228.99 93.2299 229.46 93.2299C229.89 93.2299 230.25 93.0399 230.54 92.6699C230.83 92.2999 230.99 91.5999 230.99 90.5899V87.6499H237.18V89.9999C237.18 92.8199 236.48 94.9499 235.08 96.3899C233.69 97.8199 231.82 98.5299 229.47 98.5299L229.45 98.5399ZM230.97 79.1299V73.5499C230.97 72.5399 230.82 71.8399 230.52 71.4699C230.23 71.0999 229.87 70.9099 229.44 70.9099C228.97 70.9099 228.6 71.0999 228.32 71.4699C228.04 71.8399 227.9 72.5399 227.9 73.5499V79.1299H230.96H230.97Z" fill="black"/>
<path d="M245.74 98.5401C243.97 98.5401 242.58 97.9201 241.58 96.6901C240.58 95.4601 240.09 93.7201 240.09 91.4801V72.0901C240.09 70.0201 240.52 68.4201 241.38 67.3001C242.25 66.1801 243.51 65.6201 245.16 65.6201C245.9 65.6201 246.53 65.7401 247.05 65.9801C247.58 66.2101 248.05 66.4801 248.44 66.8001C248.87 67.1601 249.24 67.5501 249.56 67.9801V56.8101H255.73V98.2501H251.91L250.43 95.9101C250.12 96.4201 249.75 96.8701 249.31 97.2601C248.93 97.5801 248.43 97.8701 247.82 98.1401C247.22 98.4201 246.52 98.5601 245.74 98.5601V98.5401ZM247.79 93.2401C248.14 93.2401 248.44 93.1301 248.67 92.9001C248.91 92.6601 249.09 92.3801 249.2 92.0701C249.36 91.7301 249.48 91.3301 249.56 90.8901V73.2601C249.48 72.8301 249.36 72.4401 249.2 72.0801C249.09 71.7601 248.91 71.4901 248.67 71.2601C248.44 71.0201 248.15 70.9001 247.79 70.9001C247.36 70.9001 246.99 71.0901 246.7 71.4601C246.4 71.8301 246.25 72.5301 246.25 73.5401V90.5901C246.25 91.6101 246.4 92.3001 246.7 92.6701C246.99 93.0401 247.36 93.2301 247.79 93.2301V93.2401Z" fill="black"/>
<path d="M112.94 109.87V109.22H113.74V104.73H112.94V104.1H115.37V104.73H114.57V109.22H115.37V109.87H112.94Z" fill="black"/>
<path d="M116.54 109.87V105.58H117.07L117.27 106.24C117.38 106.03 117.55 105.86 117.77 105.72C117.99 105.59 118.28 105.52 118.65 105.52C119.17 105.52 119.53 105.67 119.74 105.98C119.96 106.28 120.07 106.67 120.07 107.16V109.87H119.34V107.37C119.34 107.15 119.32 106.95 119.28 106.77C119.24 106.58 119.15 106.43 119.01 106.31C118.87 106.2 118.67 106.14 118.41 106.14C118.05 106.14 117.78 106.26 117.58 106.5C117.38 106.74 117.28 107.09 117.28 107.55V109.88H116.55L116.54 109.87Z" fill="black"/>
<path d="M121.26 109.87V105.58H121.79L121.99 106.24C122.1 106.03 122.27 105.86 122.49 105.72C122.71 105.59 123 105.52 123.37 105.52C123.89 105.52 124.25 105.67 124.46 105.98C124.68 106.28 124.79 106.67 124.79 107.16V109.87H124.06V107.37C124.06 107.15 124.04 106.95 124 106.77C123.96 106.58 123.87 106.43 123.73 106.31C123.59 106.2 123.39 106.14 123.13 106.14C122.77 106.14 122.5 106.26 122.3 106.5C122.1 106.74 122 107.09 122 107.55V109.88H121.27L121.26 109.87Z" fill="black"/>
<path d="M127.75 109.97C127.5 109.97 127.25 109.93 127.02 109.84C126.78 109.75 126.56 109.62 126.36 109.44C126.16 109.26 125.99 109.03 125.87 108.75C125.76 108.46 125.7 108.13 125.7 107.75C125.7 107.37 125.76 107.04 125.87 106.76C125.99 106.47 126.16 106.24 126.36 106.06C126.56 105.88 126.78 105.74 127.02 105.66C127.26 105.57 127.5 105.53 127.75 105.53C128 105.53 128.24 105.57 128.48 105.66C128.73 105.75 128.95 105.88 129.15 106.06C129.35 106.24 129.51 106.48 129.62 106.76C129.73 107.04 129.79 107.37 129.79 107.75C129.79 108.13 129.73 108.47 129.62 108.75C129.51 109.03 129.35 109.26 129.15 109.44C128.95 109.62 128.72 109.76 128.48 109.84C128.24 109.93 128 109.97 127.75 109.97ZM127.75 109.34C127.96 109.34 128.16 109.28 128.35 109.17C128.55 109.06 128.71 108.88 128.84 108.65C128.96 108.41 129.03 108.11 129.03 107.75C129.03 107.39 128.97 107.08 128.84 106.85C128.71 106.62 128.55 106.45 128.35 106.33C128.16 106.22 127.96 106.16 127.75 106.16C127.54 106.16 127.35 106.22 127.15 106.33C126.96 106.44 126.79 106.62 126.66 106.85C126.53 107.08 126.47 107.38 126.47 107.75C126.47 108.12 126.53 108.42 126.66 108.65C126.79 108.88 126.95 109.05 127.15 109.17C127.35 109.28 127.55 109.34 127.75 109.34Z" fill="black"/>
<path d="M131.67 109.87L130.13 105.58H130.92L132.04 108.92L133.16 105.58H133.94L132.42 109.87H131.67Z" fill="black"/>
<path d="M135.75 109.97C135.48 109.97 135.23 109.92 135 109.83C134.78 109.74 134.6 109.6 134.47 109.41C134.33 109.22 134.27 108.99 134.27 108.74C134.27 108.41 134.39 108.14 134.63 107.95C134.87 107.75 135.2 107.6 135.63 107.49C136.07 107.38 136.58 107.29 137.17 107.23C137.17 106.87 137.1 106.59 136.94 106.4C136.79 106.2 136.54 106.1 136.19 106.1C135.93 106.1 135.72 106.16 135.56 106.29C135.39 106.4 135.29 106.56 135.24 106.76L134.54 106.56C134.65 106.24 134.86 105.98 135.16 105.8C135.45 105.62 135.8 105.53 136.19 105.53C136.78 105.53 137.21 105.67 137.48 105.95C137.76 106.23 137.9 106.67 137.9 107.27V108.26C137.9 108.63 137.91 108.93 137.94 109.19C137.97 109.45 138 109.68 138.04 109.88H137.38L137.21 109.29C137.07 109.5 136.89 109.67 136.65 109.79C136.42 109.91 136.12 109.98 135.75 109.98V109.97ZM135.91 109.4C136.13 109.4 136.34 109.36 136.54 109.29C136.74 109.2 136.9 109.07 137.03 108.87C137.16 108.68 137.23 108.42 137.23 108.08V107.81C136.79 107.86 136.4 107.92 136.08 107.98C135.76 108.05 135.51 108.14 135.33 108.25C135.16 108.36 135.07 108.52 135.07 108.72C135.07 108.92 135.14 109.09 135.29 109.21C135.44 109.34 135.65 109.4 135.91 109.4Z" fill="black"/>
<path d="M140.4 109.87C140.13 109.87 139.92 109.85 139.77 109.8C139.63 109.74 139.53 109.64 139.47 109.48C139.42 109.32 139.4 109.09 139.4 108.79V106.16H138.67V105.57H139.4V104.49H140.12V105.57H140.95V106.16H140.12V108.67C140.12 108.89 140.14 109.04 140.18 109.12C140.23 109.19 140.36 109.22 140.57 109.22H140.96V109.87H140.41H140.4Z" fill="black"/>
<path d="M142.64 104.77C142.5 104.77 142.37 104.72 142.27 104.61C142.16 104.51 142.11 104.38 142.11 104.22C142.11 104.06 142.16 103.94 142.27 103.85C142.37 103.75 142.5 103.69 142.64 103.69C142.79 103.69 142.92 103.74 143.03 103.85C143.13 103.95 143.19 104.07 143.19 104.22C143.19 104.37 143.14 104.5 143.03 104.61C142.92 104.72 142.79 104.77 142.64 104.77ZM142.28 109.87V106.17H141.68V105.58H143V109.87H142.28Z" fill="black"/>
<path d="M145.22 109.87L143.68 105.58H144.47L145.59 108.92L146.71 105.58H147.49L145.97 109.87H145.22Z" fill="black"/>
<path d="M149.92 109.97C149.47 109.97 149.09 109.87 148.77 109.68C148.46 109.48 148.23 109.21 148.07 108.88C147.9 108.54 147.83 108.16 147.83 107.73C147.83 107.28 147.92 106.89 148.1 106.57C148.28 106.24 148.53 105.98 148.85 105.79C149.17 105.61 149.52 105.52 149.91 105.52C150.24 105.52 150.54 105.59 150.8 105.72C151.07 105.86 151.28 106.04 151.45 106.27C151.62 106.49 151.74 106.75 151.82 107.05C151.9 107.34 151.92 107.63 151.91 107.94H148.61C148.61 108.3 148.7 108.58 148.84 108.79C148.99 108.99 149.17 109.13 149.37 109.22C149.57 109.31 149.76 109.35 149.93 109.35C150.17 109.35 150.37 109.31 150.53 109.24C150.7 109.15 150.84 109.05 150.93 108.92L151.63 109.14C151.48 109.39 151.25 109.6 150.96 109.76C150.67 109.91 150.33 109.99 149.93 109.99L149.92 109.97ZM148.62 107.34H151.13C151.13 107.14 151.08 106.95 150.97 106.77C150.87 106.59 150.73 106.44 150.55 106.32C150.37 106.2 150.15 106.13 149.9 106.13C149.69 106.13 149.49 106.17 149.3 106.26C149.11 106.34 148.95 106.47 148.83 106.65C148.7 106.82 148.63 107.05 148.61 107.34H148.62Z" fill="black"/>
<path d="M157.13 109.97C156.81 109.97 156.5 109.92 156.2 109.83C155.9 109.74 155.64 109.59 155.41 109.38C155.19 109.18 155.03 108.92 154.92 108.6L155.67 108.37C155.75 108.58 155.86 108.75 156.01 108.89C156.16 109.03 156.34 109.13 156.54 109.19C156.75 109.26 156.96 109.29 157.17 109.29C157.4 109.29 157.62 109.25 157.82 109.18C158.03 109.1 158.2 108.99 158.32 108.84C158.45 108.69 158.52 108.5 158.52 108.27C158.52 108.04 158.43 107.85 158.26 107.71C158.09 107.57 157.79 107.44 157.36 107.34L156.63 107.18C156.37 107.1 156.11 107.01 155.85 106.89C155.59 106.77 155.38 106.61 155.22 106.4C155.05 106.19 154.98 105.9 154.98 105.54C154.98 105.22 155.08 104.94 155.28 104.71C155.48 104.48 155.74 104.31 156.07 104.19C156.39 104.07 156.73 104 157.09 104C157.36 104 157.62 104.04 157.88 104.11C158.15 104.19 158.39 104.31 158.6 104.47C158.81 104.62 158.98 104.83 159.1 105.07L158.35 105.29C158.24 105.09 158.07 104.94 157.82 104.83C157.57 104.73 157.32 104.67 157.06 104.67C156.85 104.67 156.65 104.71 156.46 104.77C156.27 104.84 156.11 104.94 155.99 105.07C155.88 105.21 155.82 105.37 155.82 105.57C155.82 105.77 155.88 105.91 155.99 106.03C156.1 106.15 156.25 106.24 156.44 106.3C156.63 106.37 156.83 106.43 157.06 106.47L157.69 106.61C157.98 106.68 158.26 106.78 158.52 106.9C158.78 107.01 158.99 107.18 159.15 107.4C159.31 107.62 159.39 107.91 159.39 108.28C159.39 108.55 159.32 108.79 159.19 109C159.06 109.21 158.9 109.39 158.69 109.53C158.48 109.67 158.24 109.78 157.97 109.86C157.7 109.92 157.42 109.96 157.14 109.96L157.13 109.97Z" fill="black"/>
<path d="M162.1 109.97C161.85 109.97 161.6 109.93 161.37 109.84C161.13 109.75 160.91 109.62 160.71 109.44C160.51 109.26 160.34 109.03 160.22 108.75C160.11 108.46 160.05 108.13 160.05 107.75C160.05 107.37 160.11 107.04 160.22 106.76C160.34 106.47 160.51 106.24 160.71 106.06C160.91 105.88 161.13 105.74 161.37 105.66C161.61 105.57 161.85 105.53 162.1 105.53C162.35 105.53 162.59 105.57 162.83 105.66C163.08 105.75 163.3 105.88 163.5 106.06C163.7 106.24 163.86 106.48 163.97 106.76C164.08 107.04 164.14 107.37 164.14 107.75C164.14 108.13 164.08 108.47 163.97 108.75C163.86 109.03 163.7 109.26 163.5 109.44C163.3 109.62 163.07 109.76 162.83 109.84C162.59 109.93 162.35 109.97 162.1 109.97ZM162.1 109.34C162.31 109.34 162.51 109.28 162.7 109.17C162.9 109.06 163.06 108.88 163.19 108.65C163.31 108.41 163.38 108.11 163.38 107.75C163.38 107.39 163.32 107.08 163.19 106.85C163.06 106.62 162.9 106.45 162.7 106.33C162.51 106.22 162.31 106.16 162.1 106.16C161.89 106.16 161.7 106.22 161.5 106.33C161.31 106.44 161.14 106.62 161.01 106.85C160.88 107.08 160.82 107.38 160.82 107.75C160.82 108.12 160.88 108.42 161.01 108.65C161.14 108.88 161.3 109.05 161.5 109.17C161.7 109.28 161.9 109.34 162.1 109.34Z" fill="black"/>
<path d="M166.11 109.87C165.83 109.87 165.62 109.85 165.48 109.8C165.34 109.74 165.24 109.64 165.18 109.48C165.12 109.32 165.09 109.09 165.09 108.79V104.1H165.82V108.68C165.82 108.9 165.84 109.05 165.88 109.13C165.93 109.2 166.05 109.23 166.25 109.23H166.42V109.88H166.1L166.11 109.87Z" fill="black"/>
<path d="M168.52 109.97C168.18 109.97 167.92 109.9 167.72 109.77C167.52 109.63 167.37 109.43 167.27 109.18C167.18 108.92 167.14 108.63 167.14 108.32V105.58H167.87V108.15C167.87 108.47 167.9 108.71 167.97 108.88C168.05 109.05 168.15 109.17 168.29 109.24C168.42 109.31 168.58 109.34 168.76 109.34C169.1 109.34 169.37 109.22 169.56 108.98C169.75 108.74 169.85 108.39 169.85 107.93V105.58H170.58V109.87H170.03L169.84 109.25C169.71 109.45 169.55 109.62 169.34 109.77C169.14 109.9 168.86 109.97 168.51 109.97H168.52Z" fill="black"/>
<path d="M173.09 109.87C172.82 109.87 172.61 109.85 172.46 109.8C172.32 109.74 172.22 109.64 172.16 109.48C172.11 109.32 172.09 109.09 172.09 108.79V106.16H171.36V105.57H172.09V104.49H172.81V105.57H173.64V106.16H172.81V108.67C172.81 108.89 172.83 109.04 172.87 109.12C172.92 109.19 173.05 109.22 173.26 109.22H173.65V109.87H173.1H173.09Z" fill="black"/>
<path d="M175.33 104.77C175.19 104.77 175.06 104.72 174.96 104.61C174.85 104.51 174.8 104.38 174.8 104.22C174.8 104.06 174.85 103.94 174.96 103.85C175.06 103.75 175.19 103.69 175.33 103.69C175.48 103.69 175.61 103.74 175.72 103.85C175.82 103.95 175.88 104.07 175.88 104.22C175.88 104.37 175.83 104.5 175.72 104.61C175.61 104.72 175.48 104.77 175.33 104.77ZM174.97 109.87V106.17H174.37V105.58H175.69V109.87H174.97Z" fill="black"/>
<path d="M178.76 109.97C178.51 109.97 178.26 109.93 178.03 109.84C177.79 109.75 177.57 109.62 177.37 109.44C177.17 109.26 177 109.03 176.88 108.75C176.77 108.46 176.71 108.13 176.71 107.75C176.71 107.37 176.77 107.04 176.88 106.76C177 106.47 177.17 106.24 177.37 106.06C177.57 105.88 177.79 105.74 178.03 105.66C178.27 105.57 178.51 105.53 178.76 105.53C179.01 105.53 179.25 105.57 179.49 105.66C179.74 105.75 179.96 105.88 180.16 106.06C180.36 106.24 180.52 106.48 180.63 106.76C180.74 107.04 180.8 107.37 180.8 107.75C180.8 108.13 180.74 108.47 180.63 108.75C180.52 109.03 180.36 109.26 180.16 109.44C179.96 109.62 179.73 109.76 179.49 109.84C179.25 109.93 179.01 109.97 178.76 109.97ZM178.76 109.34C178.97 109.34 179.17 109.28 179.36 109.17C179.56 109.06 179.72 108.88 179.85 108.65C179.97 108.41 180.04 108.11 180.04 107.75C180.04 107.39 179.98 107.08 179.85 106.85C179.72 106.62 179.56 106.45 179.36 106.33C179.17 106.22 178.97 106.16 178.76 106.16C178.55 106.16 178.36 106.22 178.16 106.33C177.97 106.44 177.8 106.62 177.67 106.85C177.54 107.08 177.48 107.38 177.48 107.75C177.48 108.12 177.54 108.42 177.67 108.65C177.8 108.88 177.96 109.05 178.16 109.17C178.36 109.28 178.56 109.34 178.76 109.34Z" fill="black"/>
<path d="M181.75 109.87V105.58H182.28L182.48 106.24C182.59 106.03 182.76 105.86 182.98 105.72C183.2 105.59 183.49 105.52 183.86 105.52C184.38 105.52 184.74 105.67 184.95 105.98C185.17 106.28 185.28 106.67 185.28 107.16V109.87H184.55V107.37C184.55 107.15 184.53 106.95 184.49 106.77C184.45 106.58 184.36 106.43 184.22 106.31C184.08 106.2 183.88 106.14 183.62 106.14C183.26 106.14 182.99 106.26 182.79 106.5C182.59 106.74 182.49 107.09 182.49 107.55V109.88H181.76L181.75 109.87Z" fill="black"/>
<path d="M187.93 109.97C187.68 109.97 187.43 109.93 187.2 109.86C186.96 109.78 186.74 109.67 186.55 109.52C186.37 109.36 186.23 109.16 186.13 108.92L186.82 108.66C186.88 108.91 187.02 109.09 187.24 109.21C187.46 109.32 187.69 109.37 187.93 109.37C188.1 109.37 188.26 109.35 188.42 109.3C188.57 109.25 188.7 109.18 188.79 109.08C188.88 108.98 188.93 108.86 188.93 108.74C188.93 108.5 188.83 108.33 188.64 108.24C188.46 108.15 188.24 108.07 187.98 108.01L187.39 107.9C187.18 107.85 186.98 107.79 186.8 107.71C186.63 107.62 186.48 107.51 186.37 107.35C186.26 107.19 186.21 106.98 186.21 106.72C186.21 106.46 186.29 106.25 186.44 106.07C186.6 105.89 186.81 105.75 187.06 105.67C187.32 105.58 187.58 105.53 187.86 105.53C188.19 105.53 188.51 105.6 188.81 105.75C189.12 105.89 189.33 106.11 189.47 106.41L188.78 106.65C188.7 106.48 188.57 106.36 188.38 106.28C188.2 106.19 188.01 106.15 187.81 106.15C187.59 106.15 187.39 106.2 187.21 106.29C187.04 106.39 186.95 106.53 186.95 106.71C186.95 106.9 187.03 107.04 187.18 107.13C187.33 107.21 187.52 107.27 187.74 107.32L188.3 107.43C188.53 107.48 188.75 107.54 188.96 107.63C189.17 107.72 189.34 107.85 189.46 108.02C189.59 108.19 189.66 108.42 189.66 108.72C189.66 108.99 189.58 109.22 189.42 109.41C189.25 109.6 189.04 109.75 188.77 109.86C188.5 109.95 188.22 110 187.92 110L187.93 109.97Z" fill="black"/>
<path d="M193.21 109.87V106.17H192.48V105.58H193.21V104.95C193.21 104.66 193.24 104.42 193.3 104.25C193.36 104.08 193.47 103.96 193.63 103.89C193.8 103.81 194.05 103.78 194.36 103.78H194.82V104.4H194.37C194.19 104.4 194.07 104.44 194.01 104.51C193.95 104.58 193.92 104.72 193.92 104.94V105.59H194.81V106.18H193.92V109.88H193.2L193.21 109.87Z" fill="black"/>
<path d="M197.42 109.97C197.17 109.97 196.92 109.93 196.69 109.84C196.45 109.75 196.23 109.62 196.03 109.44C195.83 109.26 195.66 109.03 195.54 108.75C195.43 108.46 195.37 108.13 195.37 107.75C195.37 107.37 195.43 107.04 195.54 106.76C195.66 106.47 195.83 106.24 196.03 106.06C196.23 105.88 196.45 105.74 196.69 105.66C196.93 105.57 197.17 105.53 197.42 105.53C197.67 105.53 197.91 105.57 198.15 105.66C198.4 105.75 198.62 105.88 198.82 106.06C199.02 106.24 199.18 106.48 199.29 106.76C199.4 107.04 199.46 107.37 199.46 107.75C199.46 108.13 199.4 108.47 199.29 108.75C199.18 109.03 199.02 109.26 198.82 109.44C198.62 109.62 198.39 109.76 198.15 109.84C197.91 109.93 197.67 109.97 197.42 109.97ZM197.42 109.34C197.63 109.34 197.83 109.28 198.02 109.17C198.22 109.06 198.38 108.88 198.51 108.65C198.63 108.41 198.7 108.11 198.7 107.75C198.7 107.39 198.64 107.08 198.51 106.85C198.38 106.62 198.22 106.45 198.02 106.33C197.83 106.22 197.63 106.16 197.42 106.16C197.21 106.16 197.02 106.22 196.82 106.33C196.63 106.44 196.46 106.62 196.33 106.85C196.2 107.08 196.14 107.38 196.14 107.75C196.14 108.12 196.2 108.42 196.33 108.65C196.46 108.88 196.62 109.05 196.82 109.17C197.02 109.28 197.22 109.34 197.42 109.34Z" fill="black"/>
<path d="M200.4 109.87V105.58H200.93L201.16 106.38C201.31 106.12 201.51 105.92 201.76 105.76C202.02 105.6 202.33 105.52 202.69 105.52V106.27H202.55C202.55 106.27 202.47 106.27 202.44 106.28C201.95 106.32 201.61 106.49 201.42 106.78C201.23 107.08 201.13 107.49 201.13 108.03V109.87H200.4Z" fill="black"/>
<path d="M205.81 109.87V104.1H206.61V106.55H209.64V104.1H210.46V109.87H209.64V107.26H206.61V109.87H205.81Z" fill="black"/>
<path d="M213.5 109.97C213.25 109.97 213 109.93 212.77 109.84C212.53 109.75 212.31 109.62 212.11 109.44C211.91 109.26 211.74 109.03 211.62 108.75C211.51 108.46 211.45 108.13 211.45 107.75C211.45 107.37 211.51 107.04 211.62 106.76C211.74 106.47 211.91 106.24 212.11 106.06C212.31 105.88 212.53 105.74 212.77 105.66C213.01 105.57 213.25 105.53 213.5 105.53C213.75 105.53 213.99 105.57 214.23 105.66C214.48 105.75 214.7 105.88 214.9 106.06C215.1 106.24 215.26 106.48 215.37 106.76C215.48 107.04 215.54 107.37 215.54 107.75C215.54 108.13 215.48 108.47 215.37 108.75C215.26 109.03 215.1 109.26 214.9 109.44C214.7 109.62 214.47 109.76 214.23 109.84C213.99 109.93 213.75 109.97 213.5 109.97ZM213.5 109.34C213.71 109.34 213.91 109.28 214.1 109.17C214.3 109.06 214.46 108.88 214.59 108.65C214.71 108.41 214.78 108.11 214.78 107.75C214.78 107.39 214.72 107.08 214.59 106.85C214.46 106.62 214.3 106.45 214.1 106.33C213.91 106.22 213.71 106.16 213.5 106.16C213.29 106.16 213.1 106.22 212.9 106.33C212.71 106.44 212.54 106.62 212.41 106.85C212.28 107.08 212.22 107.38 212.22 107.75C212.22 108.12 212.28 108.42 212.41 108.65C212.54 108.88 212.7 109.05 212.9 109.17C213.1 109.28 213.3 109.34 213.5 109.34Z" fill="black"/>
<path d="M216.48 109.87V105.58H217.01L217.21 106.24C217.32 106.03 217.49 105.86 217.7 105.72C217.91 105.59 218.17 105.52 218.49 105.52C218.82 105.52 219.09 105.59 219.29 105.72C219.49 105.85 219.63 106.03 219.72 106.27C219.9 106 220.11 105.81 220.35 105.7C220.6 105.59 220.87 105.53 221.17 105.53C221.67 105.53 222.02 105.68 222.23 105.99C222.44 106.29 222.55 106.68 222.55 107.17V109.88H221.83V107.38C221.83 107.16 221.8 106.96 221.76 106.78C221.72 106.59 221.63 106.44 221.5 106.32C221.37 106.21 221.18 106.15 220.91 106.15C220.59 106.15 220.34 106.27 220.15 106.51C219.97 106.75 219.88 107.1 219.88 107.56V109.89H219.16V107.39C219.16 107.17 219.13 106.97 219.09 106.79C219.05 106.6 218.96 106.45 218.83 106.33C218.7 106.22 218.51 106.16 218.24 106.16C217.92 106.16 217.67 106.28 217.48 106.52C217.3 106.76 217.21 107.11 217.21 107.57V109.9H216.48V109.87Z" fill="black"/>
<path d="M225.57 109.97C225.12 109.97 224.74 109.87 224.42 109.68C224.11 109.48 223.88 109.21 223.72 108.88C223.55 108.54 223.48 108.16 223.48 107.73C223.48 107.28 223.57 106.89 223.75 106.57C223.93 106.24 224.18 105.98 224.5 105.79C224.82 105.61 225.17 105.52 225.56 105.52C225.89 105.52 226.19 105.59 226.45 105.72C226.72 105.86 226.93 106.04 227.1 106.27C227.27 106.49 227.39 106.75 227.47 107.05C227.55 107.34 227.57 107.63 227.56 107.94H224.26C224.26 108.3 224.35 108.58 224.49 108.79C224.64 108.99 224.82 109.13 225.02 109.22C225.22 109.31 225.41 109.35 225.58 109.35C225.82 109.35 226.02 109.31 226.18 109.24C226.35 109.15 226.49 109.05 226.58 108.92L227.28 109.14C227.13 109.39 226.9 109.6 226.61 109.76C226.32 109.91 225.98 109.99 225.58 109.99L225.57 109.97ZM224.26 107.34H226.77C226.77 107.14 226.72 106.95 226.61 106.77C226.51 106.59 226.37 106.44 226.19 106.32C226.01 106.2 225.79 106.13 225.54 106.13C225.33 106.13 225.13 106.17 224.94 106.26C224.75 106.34 224.59 106.47 224.47 106.65C224.34 106.82 224.27 107.05 224.25 107.34H224.26Z" fill="black"/>
<path d="M230.18 109.97C229.93 109.97 229.68 109.93 229.45 109.84C229.21 109.75 228.99 109.62 228.79 109.44C228.59 109.26 228.42 109.03 228.3 108.75C228.19 108.46 228.13 108.13 228.13 107.75C228.13 107.37 228.19 107.04 228.3 106.76C228.42 106.47 228.59 106.24 228.79 106.06C228.99 105.88 229.21 105.74 229.45 105.66C229.69 105.57 229.93 105.53 230.18 105.53C230.43 105.53 230.67 105.57 230.91 105.66C231.16 105.75 231.38 105.88 231.58 106.06C231.78 106.24 231.94 106.48 232.05 106.76C232.16 107.04 232.22 107.37 232.22 107.75C232.22 108.13 232.16 108.47 232.05 108.75C231.94 109.03 231.78 109.26 231.58 109.44C231.38 109.62 231.15 109.76 230.91 109.84C230.67 109.93 230.43 109.97 230.18 109.97ZM230.18 109.34C230.39 109.34 230.59 109.28 230.78 109.17C230.98 109.06 231.14 108.88 231.27 108.65C231.39 108.41 231.46 108.11 231.46 107.75C231.46 107.39 231.4 107.08 231.27 106.85C231.14 106.62 230.98 106.45 230.78 106.33C230.59 106.22 230.39 106.16 230.18 106.16C229.97 106.16 229.78 106.22 229.58 106.33C229.39 106.44 229.22 106.62 229.09 106.85C228.96 107.08 228.9 107.38 228.9 107.75C228.9 108.12 228.96 108.42 229.09 108.65C229.22 108.88 229.38 109.05 229.58 109.17C229.78 109.28 229.98 109.34 230.18 109.34Z" fill="black"/>
<path d="M233.8 109.87L232.57 105.58H233.35L234.17 108.75L235.03 105.58H235.78L236.63 108.75L237.46 105.58H238.24L237.01 109.87H236.35L235.42 106.42L234.49 109.87H233.83H233.8Z" fill="black"/>
<path d="M238.82 109.87V105.58H239.35L239.55 106.24C239.66 106.03 239.83 105.86 240.05 105.72C240.27 105.59 240.56 105.52 240.93 105.52C241.45 105.52 241.81 105.67 242.02 105.98C242.24 106.28 242.35 106.67 242.35 107.16V109.87H241.62V107.37C241.62 107.15 241.6 106.95 241.56 106.77C241.52 106.58 241.43 106.43 241.29 106.31C241.15 106.2 240.95 106.14 240.69 106.14C240.33 106.14 240.06 106.26 239.86 106.5C239.66 106.74 239.56 107.09 239.56 107.55V109.88H238.83L238.82 109.87Z" fill="black"/>
<path d="M245.36 109.97C244.91 109.97 244.53 109.87 244.21 109.68C243.9 109.48 243.67 109.21 243.51 108.88C243.34 108.54 243.27 108.16 243.27 107.73C243.27 107.28 243.36 106.89 243.54 106.57C243.72 106.24 243.97 105.98 244.29 105.79C244.61 105.61 244.96 105.52 245.35 105.52C245.68 105.52 245.98 105.59 246.24 105.72C246.51 105.86 246.72 106.04 246.89 106.27C247.06 106.49 247.18 106.75 247.26 107.05C247.34 107.34 247.36 107.63 247.35 107.94H244.05C244.05 108.3 244.14 108.58 244.28 108.79C244.43 108.99 244.61 109.13 244.81 109.22C245.01 109.31 245.2 109.35 245.37 109.35C245.61 109.35 245.81 109.31 245.97 109.24C246.14 109.15 246.28 109.05 246.37 108.92L247.07 109.14C246.92 109.39 246.69 109.6 246.4 109.76C246.11 109.91 245.77 109.99 245.37 109.99L245.36 109.97ZM244.05 107.34H246.56C246.56 107.14 246.51 106.95 246.4 106.77C246.3 106.59 246.16 106.44 245.98 106.32C245.8 106.2 245.58 106.13 245.33 106.13C245.12 106.13 244.92 106.17 244.73 106.26C244.54 106.34 244.38 106.47 244.26 106.65C244.13 106.82 244.06 107.05 244.04 107.34H244.05Z" fill="black"/>
<path d="M248.19 109.87V105.58H248.72L248.95 106.38C249.1 106.12 249.3 105.92 249.55 105.76C249.81 105.6 250.12 105.52 250.48 105.52V106.27H250.34C250.34 106.27 250.26 106.27 250.23 106.28C249.74 106.32 249.4 106.49 249.21 106.78C249.02 107.08 248.92 107.49 248.92 108.03V109.87H248.19Z" fill="black"/>
<path d="M252.59 109.97C252.34 109.97 252.09 109.93 251.86 109.86C251.62 109.78 251.4 109.67 251.21 109.52C251.03 109.36 250.89 109.16 250.79 108.92L251.48 108.66C251.54 108.91 251.68 109.09 251.9 109.21C252.12 109.32 252.35 109.37 252.59 109.37C252.76 109.37 252.92 109.35 253.08 109.3C253.23 109.25 253.36 109.18 253.45 109.08C253.54 108.98 253.59 108.86 253.59 108.74C253.59 108.5 253.49 108.33 253.3 108.24C253.12 108.15 252.9 108.07 252.64 108.01L252.05 107.9C251.84 107.85 251.64 107.79 251.46 107.71C251.29 107.62 251.14 107.51 251.03 107.35C250.92 107.19 250.87 106.98 250.87 106.72C250.87 106.46 250.95 106.25 251.1 106.07C251.26 105.89 251.47 105.75 251.72 105.67C251.98 105.58 252.24 105.53 252.52 105.53C252.85 105.53 253.17 105.6 253.47 105.75C253.78 105.89 253.99 106.11 254.13 106.41L253.44 106.65C253.36 106.48 253.23 106.36 253.04 106.28C252.86 106.19 252.67 106.15 252.47 106.15C252.25 106.15 252.05 106.2 251.87 106.29C251.7 106.39 251.61 106.53 251.61 106.71C251.61 106.9 251.69 107.04 251.84 107.13C251.99 107.21 252.18 107.27 252.4 107.32L252.96 107.43C253.19 107.48 253.41 107.54 253.62 107.63C253.83 107.72 254 107.85 254.12 108.02C254.25 108.19 254.32 108.42 254.32 108.72C254.32 108.99 254.24 109.22 254.08 109.41C253.91 109.6 253.7 109.75 253.43 109.86C253.16 109.95 252.88 110 252.58 110L252.59 109.97Z" fill="black"/>
<path d="M255.19 109.87V104.1H255.92V106.24C256.03 106.03 256.2 105.86 256.42 105.72C256.64 105.59 256.93 105.52 257.3 105.52C257.82 105.52 258.18 105.67 258.39 105.98C258.61 106.28 258.72 106.67 258.72 107.16V109.87H257.99V107.37C257.99 107.15 257.97 106.95 257.93 106.77C257.89 106.58 257.8 106.43 257.66 106.31C257.52 106.2 257.32 106.14 257.06 106.14C256.7 106.14 256.43 106.26 256.23 106.5C256.03 106.74 255.93 107.09 255.93 107.55V109.88H255.2L255.19 109.87Z" fill="black"/>
<path d="M260.66 104.77C260.52 104.77 260.39 104.72 260.29 104.61C260.18 104.51 260.13 104.38 260.13 104.22C260.13 104.06 260.18 103.94 260.29 103.85C260.39 103.75 260.52 103.69 260.66 103.69C260.81 103.69 260.94 103.74 261.05 103.85C261.15 103.95 261.21 104.07 261.21 104.22C261.21 104.37 261.16 104.5 261.05 104.61C260.94 104.72 260.81 104.77 260.66 104.77ZM260.3 109.87V106.17H259.7V105.58H261.02V109.87H260.3Z" fill="black"/>
<path d="M262.31 111.26V105.58H262.84L263.04 106.25C263.17 106.03 263.36 105.86 263.59 105.72C263.82 105.59 264.1 105.52 264.44 105.52C264.78 105.52 265.06 105.61 265.34 105.78C265.62 105.95 265.84 106.21 266.01 106.54C266.18 106.88 266.27 107.28 266.27 107.75C266.27 108.22 266.18 108.62 266.01 108.96C265.84 109.3 265.61 109.55 265.34 109.72C265.06 109.89 264.76 109.98 264.44 109.98C264.12 109.98 263.82 109.91 263.59 109.78C263.36 109.65 263.18 109.46 263.04 109.23V111.27H262.31V111.26ZM264.23 109.35C264.6 109.35 264.9 109.21 265.12 108.93C265.34 108.64 265.45 108.25 265.45 107.74C265.45 107.23 265.34 106.83 265.12 106.55C264.9 106.27 264.6 106.13 264.23 106.13C263.86 106.13 263.57 106.27 263.35 106.55C263.13 106.83 263.02 107.22 263.02 107.74C263.02 108.26 263.13 108.64 263.35 108.93C263.57 109.21 263.86 109.35 264.23 109.35Z" fill="black"/>
<path d="M77.1 57.3602C88.83 66.8902 99.37 97.7702 83.8 107.79C77.97 111.54 71.25 112.55 65.1 108.76C52.16 100.78 54.51 81.3502 60.52 69.6402C62.66 65.4602 67.02 58.6502 71.34 56.4302C72.11 56.0302 73.97 55.5902 74.79 55.6902C75.43 55.7702 76.53 56.9002 77.1 57.3602Z" fill="black"/>
<path d="M64.23 106.06C61.09 103.57 59.85 99.8002 58.95 95.9602C55.88 82.8102 60.86 66.7802 72.43 59.3402C74.28 58.1502 74.94 58.6602 76.55 59.8302C80.13 62.4202 85.23 71.5402 86.9 75.7402C91.32 86.8202 91.73 105.55 77.02 108.72C72.12 109.78 68.14 109.14 64.23 106.04V106.06Z" fill="#F9F3F0"/>
<path d="M71.82 62.8399C72.06 63.1299 72.12 63.4899 72.05 63.8499C67.15 72.8899 65.16 82.4999 66.21 92.7899C66.38 94.4899 67.26 97.4599 67.18 98.9399C67.14 99.6099 66.12 100.82 65.31 100.63C64.38 100.41 62.92 97.3099 62.62 96.3899C59.66 87.2199 62.84 74.3199 67.85 66.3899C68.26 65.7399 70.43 62.3799 70.97 62.3799C71.14 62.3799 71.72 62.7199 71.83 62.8499L71.82 62.8399Z" fill="black"/>
<path d="M77.79 69.2902C77.28 68.9402 76.8 70.6602 76.72 70.9602C75.86 74.0102 76.08 77.8902 76.84 80.9402C77.09 81.9402 78.15 84.4002 78.17 85.1102C78.19 86.0902 76.46 86.1602 75.76 85.4302C75.3 84.9502 74.2 82.7602 73.9 82.0502C72.32 78.3402 72.3 74.6102 73.47 70.7602C73.79 69.7202 74.96 66.7402 75.85 66.2202C77.35 65.3602 79.46 67.1402 80.32 68.2802C82.99 71.8002 83.69 75.8502 84.11 80.1602C83.93 81.6202 80.72 81.3202 80.46 79.3402C80.15 76.9302 80.42 74.4002 79.4 72.0602C79.26 71.7402 77.93 69.3802 77.79 69.2902Z" fill="black"/>
<path d="M80.86 104.3C80.79 104.25 80.31 102.94 80.28 102.74C80.03 101.25 81.45 99.9401 82.02 98.4601C82.93 96.0701 83.23 93.1201 82.37 90.6701C82.09 89.8801 80.06 87.1201 80.08 86.9001C80.1 86.6401 81.13 85.7401 81.54 85.7801C82.95 85.9001 85.22 90.1901 85.63 91.4901C86.66 94.7201 86.29 98.2801 84.55 101.2C84.14 101.89 81.63 104.84 80.86 104.3Z" fill="black"/>
<path d="M79.42 105.33C74.8 104.92 73.51 99.8398 73.71 95.8498C73.75 95.1098 74.09 92.4398 74.52 91.9698C74.79 91.6698 77.27 91.1698 77.59 91.3598C77.72 91.4398 77.86 91.7198 77.91 91.8698C78.12 92.5598 77.42 95.5498 77.38 96.6498C77.3 98.8498 77.45 100.72 78.45 102.72C78.88 103.57 79.8 103.92 79.42 105.32V105.33Z" fill="black"/>
</g>
<defs>
<clipPath id="clip0_1_435">
<rect width="266.27" height="137.51" fill="white" transform="translate(0 12)"/>
</clipPath>
</defs>
</svg>
