<svg width="149" height="155" viewBox="0 0 149 155" fill="none" xmlns="http://www.w3.org/2000/svg">
<g filter="url(#filter0_d_1_559)">
<circle cx="77.5" cy="65.5" r="37.5" fill="url(#paint0_linear_1_559)"/>
</g>
<g clip-path="url(#clip0_1_559)">
<path d="M78.7394 52.0694C78.4902 52.1734 78.3275 52.416 78.3275 52.6852L78.3275 59.9881L61.6665 59.9881C61.2986 59.9881 61 60.2867 61 60.6545L61 71.3177C61 71.6855 61.2986 71.9841 61.6665 71.9841L78.3276 71.9841L78.3276 79.315C78.3276 79.5842 78.4902 79.8268 78.7381 79.9308C78.9874 80.0334 79.274 79.9775 79.4646 79.7868L92.8041 66.4913C92.9294 66.366 93.0001 66.1967 93.0001 66.0194C93.0001 65.8422 92.9294 65.6729 92.8054 65.5476L79.4659 52.2133C79.2752 52.0227 78.9887 51.9654 78.7394 52.0694Z" fill="white"/>
</g>
<defs>
<filter id="filter0_d_1_559" x="0" y="0" width="155" height="155" filterUnits="userSpaceOnUse" color-interpolation-filters="sRGB">
<feFlood flood-opacity="0" result="BackgroundImageFix"/>
<feColorMatrix in="SourceAlpha" type="matrix" values="0 0 0 0 0 0 0 0 0 0 0 0 0 0 0 0 0 0 127 0" result="hardAlpha"/>
<feOffset dy="12"/>
<feGaussianBlur stdDeviation="20"/>
<feColorMatrix type="matrix" values="0 0 0 0 0 0 0 0 0 0 0 0 0 0 0 0 0 0 0.06 0"/>
<feBlend mode="normal" in2="BackgroundImageFix" result="effect1_dropShadow_1_559"/>
<feBlend mode="normal" in="SourceGraphic" in2="effect1_dropShadow_1_559" result="shape"/>
</filter>
<linearGradient id="paint0_linear_1_559" x1="40" y1="8.64513" x2="199.442" y2="43.4048" gradientUnits="userSpaceOnUse">
<stop stop-color="#647B64"/>
<stop offset="1" stop-color="#6ADD6A"/>
</linearGradient>
<clipPath id="clip0_1_559">
<rect width="32" height="32" fill="white" transform="translate(61 82) rotate(-90)"/>
</clipPath>
</defs>
</svg>
