<svg width="155" height="155" viewBox="0 0 155 155" fill="none" xmlns="http://www.w3.org/2000/svg">
<g filter="url(#filter0_d_1_552)">
<circle cx="37.5" cy="37.5" r="37.5" transform="matrix(-1 0 0 1 115 28)" fill="url(#paint0_linear_1_552)"/>
</g>
<g clip-path="url(#clip0_1_552)">
<path d="M76.2606 52.0694C76.5098 52.1734 76.6725 52.416 76.6725 52.6852L76.6725 59.9881L93.3335 59.9881C93.7014 59.9881 94 60.2867 94 60.6545L94 71.3177C94 71.6855 93.7014 71.9841 93.3335 71.9841L76.6724 71.9841L76.6724 79.315C76.6724 79.5842 76.5098 79.8268 76.2619 79.9308C76.0126 80.0334 75.726 79.9775 75.5354 79.7868L62.1959 66.4913C62.0706 66.366 61.9999 66.1967 61.9999 66.0194C61.9999 65.8422 62.0706 65.6729 62.1946 65.5476L75.5341 52.2133C75.7248 52.0227 76.0113 51.9654 76.2606 52.0694Z" fill="white"/>
</g>
<defs>
<filter id="filter0_d_1_552" x="0" y="0" width="155" height="155" filterUnits="userSpaceOnUse" color-interpolation-filters="sRGB">
<feFlood flood-opacity="0" result="BackgroundImageFix"/>
<feColorMatrix in="SourceAlpha" type="matrix" values="0 0 0 0 0 0 0 0 0 0 0 0 0 0 0 0 0 0 127 0" result="hardAlpha"/>
<feOffset dy="12"/>
<feGaussianBlur stdDeviation="20"/>
<feColorMatrix type="matrix" values="0 0 0 0 0 0 0 0 0 0 0 0 0 0 0 0 0 0 0.06 0"/>
<feBlend mode="normal" in2="BackgroundImageFix" result="effect1_dropShadow_1_552"/>
<feBlend mode="normal" in="SourceGraphic" in2="effect1_dropShadow_1_552" result="shape"/>
</filter>
<linearGradient id="paint0_linear_1_552" x1="6.05182e-06" y1="-19.3549" x2="159.442" y2="15.4048" gradientUnits="userSpaceOnUse">
<stop stop-color="#647B64"/>
<stop offset="1" stop-color="#6ADD6A"/>
</linearGradient>
<clipPath id="clip0_1_552">
<rect width="32" height="32" fill="white" transform="matrix(4.37114e-08 -1 -1 -4.37114e-08 94 82)"/>
</clipPath>
</defs>
</svg>
