<svg width="64" height="64" viewBox="0 0 64 64" fill="none" xmlns="http://www.w3.org/2000/svg">
<g id="vuesax/bold/stacks-(stx)">
<g id="vuesax/bold/stacks-(stx)_2">
<g id="stacks-(stx)">
<path id="Vector" d="M31.9998 5.33325C17.2798 5.33325 5.33313 17.2799 5.33313 31.9999C5.33313 46.7199 17.2798 58.6666 31.9998 58.6666C46.7198 58.6666 58.6665 46.7199 58.6665 31.9999C58.6665 17.2799 46.7198 5.33325 31.9998 5.33325ZM43.9998 37.9999H35.8665L41.1731 45.5199C41.8131 46.4266 41.5998 47.6799 40.6932 48.2933C40.3465 48.5333 39.9464 48.6666 39.5464 48.6666C38.9064 48.6666 38.2931 48.3732 37.9198 47.8132L31.7865 39.1199L25.6531 47.8132C25.2531 48.3732 24.6398 48.6666 24.0265 48.6666C23.6265 48.6666 23.2264 48.5599 22.8798 48.2933C21.9731 47.6533 21.7598 46.3999 22.3998 45.5199L27.7065 37.9999H20.0531C18.9598 37.9999 18.0531 37.0933 18.0531 35.9999C18.0531 34.9066 18.9598 33.9999 20.0531 33.9999H44.0531C45.1464 33.9999 46.0531 34.9066 46.0531 35.9999C46.0531 37.0933 45.0931 37.9999 43.9998 37.9999ZM43.9998 29.9999H19.9998C18.9065 29.9999 17.9998 29.0933 17.9998 27.9999C17.9998 26.9066 18.9065 25.9999 19.9998 25.9999H27.6531L22.3465 18.4799C21.7065 17.5732 21.9198 16.3199 22.8265 15.7066C23.7331 15.0666 24.9865 15.2799 25.5998 16.1866L31.7331 24.8799L37.8665 16.1866C38.5065 15.2799 39.7598 15.0666 40.6398 15.7066C41.5464 16.3466 41.7598 17.5999 41.1198 18.4799L35.8131 25.9999H43.9465C45.0398 25.9999 45.9465 26.9066 45.9465 27.9999C45.9465 29.0933 45.0931 29.9999 43.9998 29.9999Z" fill="#647B64"/>
</g>
</g>
</g>
</svg>
